<svg width="2000" height="2000" viewBox="0 0 2000 2000" fill="none" xmlns="http://www.w3.org/2000/svg">
<path d="M151.264 1325.24H675.692L819.709 1319.57C1195.3 1287.11 1324.35 1110.85 1325.08 676.38C1325.59 369.153 1325.45 220.597 1325.28 152.882C1325.21 124.349 1302.08 101.46 1273.55 101.46H727.692C698.973 101.46 675.692 124.742 675.692 153.46V624.38C675.692 653.099 652.411 676.38 623.692 676.38H151.264C122.545 676.38 99.2637 699.661 99.2637 728.38V1273.24C99.2637 1301.96 122.545 1325.24 151.264 1325.24Z" fill="#0081E6" stroke="#0081E6" stroke-width="84" stroke-linecap="round"/>
<path d="M675.026 1325.78C675.089 1632.13 675.073 1779.98 675.052 1847.61C675.044 1876.35 698.344 1899.62 727.087 1899.62H821.27H1272.35C1301.11 1899.62 1324.41 1876.28 1324.35 1847.53L1323.48 1377.88C1323.42 1349.12 1346.72 1325.78 1375.48 1325.78H1847.03C1875.74 1325.78 1899.03 1302.5 1899.03 1273.78V822.796V731.032C1899.03 701.715 1874.82 677.941 1845.51 678.173C1776.73 678.716 1627.81 679.134 1323.38 677.481C837.462 674.842 674.927 837.661 675.026 1325.78Z" fill="#ADDEFF" stroke="#ADDEFF" stroke-width="84" stroke-linecap="round"/>
<path d="M1367.08 676.45L1367.15 634.45L1283.15 634.31L1283.08 676.31L1367.08 676.45ZM1180.91 863.074C1204.03 861.114 1221.18 840.789 1219.22 817.676C1217.26 794.563 1196.93 777.415 1173.82 779.375L1180.91 863.074ZM1283.08 676.31C1282.73 879.98 1253.54 1017.18 1190.39 1108.49C1128.87 1197.43 1029.85 1250.04 870.529 1271.72L881.859 1354.96C1054.69 1331.43 1179.76 1271.52 1259.48 1156.27C1337.56 1043.38 1366.73 884.71 1367.08 676.45L1283.08 676.31ZM862.673 1264.27C868.387 1106.88 899.334 1013.18 948.853 956.283C997.421 900.478 1070.66 872.425 1180.91 863.074L1173.82 779.375C1054.1 789.527 954.842 821.45 885.489 901.137C817.087 979.732 784.689 1097.04 778.728 1261.22L862.673 1264.27ZM870.529 1271.72C866.535 1272.27 862.498 1269.08 862.673 1264.27L778.728 1261.22C776.691 1317.34 825.439 1362.64 881.859 1354.96L870.529 1271.72Z" fill="#0081E6"/>
<path d="M779.27 1899.62V1941.62H863.27V1899.62H779.27ZM863.27 1467.87C863.27 1444.67 844.466 1425.87 821.27 1425.87C798.074 1425.87 779.27 1444.67 779.27 1467.87H863.27ZM821.27 1899.62C863.27 1899.62 863.27 1899.62 863.27 1899.62C863.27 1899.62 863.27 1899.62 863.27 1899.62C863.27 1899.62 863.27 1899.61 863.27 1899.61C863.27 1899.61 863.27 1899.61 863.27 1899.6C863.27 1899.6 863.27 1899.59 863.27 1899.59C863.27 1899.58 863.27 1899.58 863.27 1899.57C863.27 1899.57 863.27 1899.56 863.27 1899.56C863.27 1899.55 863.27 1899.54 863.27 1899.54C863.27 1899.53 863.27 1899.52 863.27 1899.51C863.27 1899.51 863.27 1899.5 863.27 1899.49C863.27 1899.48 863.27 1899.47 863.27 1899.46C863.27 1899.45 863.27 1899.44 863.27 1899.43C863.27 1899.42 863.27 1899.41 863.27 1899.39C863.27 1899.38 863.27 1899.37 863.27 1899.36C863.27 1899.34 863.27 1899.33 863.27 1899.32C863.27 1899.3 863.27 1899.29 863.27 1899.28C863.27 1899.26 863.27 1899.25 863.27 1899.23C863.27 1899.22 863.27 1899.2 863.27 1899.18C863.27 1899.17 863.27 1899.15 863.27 1899.13C863.27 1899.11 863.27 1899.1 863.27 1899.08C863.27 1899.06 863.27 1899.04 863.27 1899.02C863.27 1899 863.27 1898.98 863.27 1898.96C863.27 1898.94 863.27 1898.92 863.27 1898.9C863.27 1898.88 863.27 1898.86 863.27 1898.84C863.27 1898.82 863.27 1898.79 863.27 1898.77C863.27 1898.75 863.27 1898.73 863.27 1898.7C863.27 1898.68 863.27 1898.65 863.27 1898.63C863.27 1898.6 863.27 1898.58 863.27 1898.55C863.27 1898.53 863.27 1898.5 863.27 1898.47C863.27 1898.45 863.27 1898.42 863.27 1898.39C863.27 1898.37 863.27 1898.34 863.27 1898.31C863.27 1898.28 863.27 1898.25 863.27 1898.22C863.27 1898.19 863.27 1898.16 863.27 1898.13C863.27 1898.1 863.27 1898.07 863.27 1898.04C863.27 1898.01 863.27 1897.98 863.27 1897.95C863.27 1897.91 863.27 1897.88 863.27 1897.85C863.27 1897.82 863.27 1897.78 863.27 1897.75C863.27 1897.71 863.27 1897.68 863.27 1897.64C863.27 1897.61 863.27 1897.57 863.27 1897.54C863.27 1897.5 863.27 1897.46 863.27 1897.43C863.27 1897.39 863.27 1897.35 863.27 1897.32C863.27 1897.28 863.27 1897.24 863.27 1897.2C863.27 1897.16 863.27 1897.12 863.27 1897.08C863.27 1897.04 863.27 1897 863.27 1896.96C863.27 1896.92 863.27 1896.88 863.27 1896.84C863.27 1896.8 863.27 1896.76 863.27 1896.71C863.27 1896.67 863.27 1896.63 863.27 1896.58C863.27 1896.54 863.27 1896.5 863.27 1896.45C863.27 1896.41 863.27 1896.36 863.27 1896.32C863.27 1896.27 863.27 1896.23 863.27 1896.18C863.27 1896.13 863.27 1896.09 863.27 1896.04C863.27 1895.99 863.27 1895.94 863.27 1895.89C863.27 1895.85 863.27 1895.8 863.27 1895.75C863.27 1895.7 863.27 1895.65 863.27 1895.6C863.27 1895.55 863.27 1895.5 863.27 1895.45C863.27 1895.4 863.27 1895.34 863.27 1895.29C863.27 1895.24 863.27 1895.19 863.27 1895.13C863.27 1895.08 863.27 1895.03 863.27 1894.97C863.27 1894.92 863.27 1894.86 863.27 1894.81C863.27 1894.75 863.27 1894.7 863.27 1894.64C863.27 1894.59 863.27 1894.53 863.27 1894.47C863.27 1894.42 863.27 1894.36 863.27 1894.3C863.27 1894.24 863.27 1894.18 863.27 1894.12C863.27 1894.07 863.27 1894.01 863.27 1893.95C863.27 1893.89 863.27 1893.83 863.27 1893.77C863.27 1893.7 863.27 1893.64 863.27 1893.58C863.27 1893.52 863.27 1893.46 863.27 1893.39C863.27 1893.33 863.27 1893.27 863.27 1893.2C863.27 1893.14 863.27 1893.08 863.27 1893.01C863.27 1892.95 863.27 1892.88 863.27 1892.82C863.27 1892.75 863.27 1892.68 863.27 1892.62C863.27 1892.55 863.27 1892.48 863.27 1892.41C863.27 1892.35 863.27 1892.28 863.27 1892.21C863.27 1892.14 863.27 1892.07 863.27 1892C863.27 1891.93 863.27 1891.86 863.27 1891.79C863.27 1891.72 863.27 1891.65 863.27 1891.58C863.27 1891.51 863.27 1891.43 863.27 1891.36C863.27 1891.29 863.27 1891.22 863.27 1891.14C863.27 1891.07 863.27 1890.99 863.27 1890.92C863.27 1890.84 863.27 1890.77 863.27 1890.69C863.27 1890.62 863.27 1890.54 863.27 1890.47C863.27 1890.39 863.27 1890.31 863.27 1890.23C863.27 1890.16 863.27 1890.08 863.27 1890C863.27 1889.92 863.27 1889.84 863.27 1889.76C863.27 1889.68 863.27 1889.6 863.27 1889.52C863.27 1889.44 863.27 1889.36 863.27 1889.28C863.27 1889.2 863.27 1889.11 863.27 1889.03C863.27 1888.95 863.27 1888.87 863.27 1888.78C863.27 1888.7 863.27 1888.61 863.27 1888.53C863.27 1888.45 863.27 1888.36 863.27 1888.27C863.27 1888.19 863.27 1888.1 863.27 1888.02C863.27 1887.93 863.27 1887.84 863.27 1887.75C863.27 1887.67 863.27 1887.58 863.27 1887.49C863.27 1887.4 863.27 1887.31 863.27 1887.22C863.27 1887.13 863.27 1887.04 863.27 1886.95C863.27 1886.86 863.27 1886.77 863.27 1886.68C863.27 1886.59 863.27 1886.5 863.27 1886.4C863.27 1886.31 863.27 1886.22 863.27 1886.12C863.27 1886.03 863.27 1885.93 863.27 1885.84C863.27 1885.75 863.27 1885.65 863.27 1885.55C863.27 1885.46 863.27 1885.36 863.27 1885.27C863.27 1885.17 863.27 1885.07 863.27 1884.97C863.27 1884.88 863.27 1884.78 863.27 1884.68C863.27 1884.58 863.27 1884.48 863.27 1884.38C863.27 1884.28 863.27 1884.18 863.27 1884.08C863.27 1883.98 863.27 1883.88 863.27 1883.78C863.27 1883.67 863.27 1883.57 863.27 1883.47C863.27 1883.37 863.27 1883.26 863.27 1883.16C863.27 1883.06 863.27 1882.95 863.27 1882.85C863.27 1882.74 863.27 1882.64 863.27 1882.53C863.27 1882.42 863.27 1882.32 863.27 1882.21C863.27 1882.1 863.27 1882 863.27 1881.89C863.27 1881.78 863.27 1881.67 863.27 1881.56C863.27 1881.45 863.27 1881.34 863.27 1881.23C863.27 1881.12 863.27 1881.01 863.27 1880.9C863.27 1880.79 863.27 1880.68 863.27 1880.57C863.27 1880.45 863.27 1880.34 863.27 1880.23C863.27 1880.12 863.27 1880 863.27 1879.89C863.27 1879.77 863.27 1879.66 863.27 1879.54C863.27 1879.43 863.27 1879.31 863.27 1879.2C863.27 1879.08 863.27 1878.96 863.27 1878.85C863.27 1878.73 863.27 1878.61 863.27 1878.49C863.27 1878.37 863.27 1878.26 863.27 1878.14C863.27 1878.02 863.27 1877.9 863.27 1877.78C863.27 1877.66 863.27 1877.53 863.27 1877.41C863.27 1877.29 863.27 1877.17 863.27 1877.05C863.27 1876.92 863.27 1876.8 863.27 1876.68C863.27 1876.55 863.27 1876.43 863.27 1876.31C863.27 1876.18 863.27 1876.06 863.27 1875.93C863.27 1875.8 863.27 1875.68 863.27 1875.55C863.27 1875.42 863.27 1875.3 863.27 1875.17C863.27 1875.04 863.27 1874.91 863.27 1874.78C863.27 1874.66 863.27 1874.53 863.27 1874.4C863.27 1874.27 863.27 1874.14 863.27 1874.01C863.27 1873.87 863.27 1873.74 863.27 1873.61C863.27 1873.48 863.27 1873.35 863.27 1873.21C863.27 1873.08 863.27 1872.95 863.27 1872.81C863.27 1872.68 863.27 1872.54 863.27 1872.41C863.27 1872.27 863.27 1872.14 863.27 1872C863.27 1871.87 863.27 1871.73 863.27 1871.59C863.27 1871.45 863.27 1871.32 863.27 1871.18C863.27 1871.04 863.27 1870.9 863.27 1870.76C863.27 1870.62 863.27 1870.48 863.27 1870.34C863.27 1870.2 863.27 1870.06 863.27 1869.92C863.27 1869.78 863.27 1869.63 863.27 1869.49C863.27 1869.35 863.27 1869.21 863.27 1869.06C863.27 1868.92 863.27 1868.77 863.27 1868.63C863.27 1868.49 863.27 1868.34 863.27 1868.19C863.27 1868.05 863.27 1867.9 863.27 1867.76C863.27 1867.61 863.27 1867.46 863.27 1867.31C863.27 1867.17 863.27 1867.02 863.27 1866.87C863.27 1866.72 863.27 1866.57 863.27 1866.42C863.27 1866.27 863.27 1866.12 863.27 1865.97C863.27 1865.82 863.27 1865.66 863.27 1865.51C863.27 1865.36 863.27 1865.21 863.27 1865.05C863.27 1864.9 863.27 1864.75 863.27 1864.59C863.27 1864.44 863.27 1864.28 863.27 1864.13C863.27 1863.97 863.27 1863.81 863.27 1863.66C863.27 1863.5 863.27 1863.34 863.27 1863.19C863.27 1863.03 863.27 1862.87 863.27 1862.71C863.27 1862.55 863.27 1862.39 863.27 1862.23C863.27 1862.07 863.27 1861.91 863.27 1861.75C863.27 1861.59 863.27 1861.43 863.27 1861.27C863.27 1861.11 863.27 1860.94 863.27 1860.78C863.27 1860.62 863.27 1860.45 863.27 1860.29C863.27 1860.13 863.27 1859.96 863.27 1859.8C863.27 1859.63 863.27 1859.46 863.27 1859.3C863.27 1859.13 863.27 1858.96 863.27 1858.8C863.27 1858.63 863.27 1858.46 863.27 1858.29C863.27 1858.12 863.27 1857.96 863.27 1857.79C863.27 1857.62 863.27 1857.45 863.27 1857.27C863.27 1857.1 863.27 1856.93 863.27 1856.76C863.27 1856.59 863.27 1856.42 863.27 1856.24C863.27 1856.07 863.27 1855.9 863.27 1855.72C863.27 1855.55 863.27 1855.37 863.27 1855.2C863.27 1855.02 863.27 1854.85 863.27 1854.67C863.27 1854.5 863.27 1854.32 863.27 1854.14C863.27 1853.96 863.27 1853.79 863.27 1853.61C863.27 1853.43 863.27 1853.25 863.27 1853.07C863.27 1852.89 863.27 1852.71 863.27 1852.53C863.27 1852.35 863.27 1852.17 863.27 1851.99C863.27 1851.8 863.27 1851.62 863.27 1851.44C863.27 1851.26 863.27 1851.07 863.27 1850.89C863.27 1850.7 863.27 1850.52 863.27 1850.33C863.27 1850.15 863.27 1849.96 863.27 1849.78C863.27 1849.59 863.27 1849.4 863.27 1849.22C863.27 1849.03 863.27 1848.84 863.27 1848.65C863.27 1848.46 863.27 1848.28 863.27 1848.09C863.27 1847.9 863.27 1847.71 863.27 1847.52C863.27 1847.32 863.27 1847.13 863.27 1846.94C863.27 1846.75 863.27 1846.56 863.27 1846.36C863.27 1846.17 863.27 1845.98 863.27 1845.78C863.27 1845.59 863.27 1845.39 863.27 1845.2C863.27 1845 863.27 1844.81 863.27 1844.61C863.27 1844.42 863.27 1844.22 863.27 1844.02C863.27 1843.82 863.27 1843.63 863.27 1843.43C863.27 1843.23 863.27 1843.03 863.27 1842.83C863.27 1842.63 863.27 1842.43 863.27 1842.23C863.27 1842.03 863.27 1841.83 863.27 1841.62C863.27 1841.42 863.27 1841.22 863.27 1841.02C863.27 1840.81 863.27 1840.61 863.27 1840.41C863.27 1840.2 863.27 1840 863.27 1839.79C863.27 1839.59 863.27 1839.38 863.27 1839.17C863.27 1838.97 863.27 1838.76 863.27 1838.55C863.27 1838.34 863.27 1838.14 863.27 1837.93C863.27 1837.72 863.27 1837.51 863.27 1837.3C863.27 1837.09 863.27 1836.88 863.27 1836.67C863.27 1836.46 863.27 1836.25 863.27 1836.03C863.27 1835.82 863.27 1835.61 863.27 1835.39C863.27 1835.18 863.27 1834.97 863.27 1834.75C863.27 1834.54 863.27 1834.32 863.27 1834.11C863.27 1833.89 863.27 1833.68 863.27 1833.46C863.27 1833.24 863.27 1833.02 863.27 1832.81C863.27 1832.59 863.27 1832.37 863.27 1832.15C863.27 1831.93 863.27 1831.71 863.27 1831.49C863.27 1831.27 863.27 1831.05 863.27 1830.83C863.27 1830.61 863.27 1830.39 863.27 1830.16C863.27 1829.94 863.27 1829.72 863.27 1829.49C863.27 1829.27 863.27 1829.05 863.27 1828.82C863.27 1828.6 863.27 1828.37 863.27 1828.15C863.27 1827.92 863.27 1827.69 863.27 1827.47C863.27 1827.24 863.27 1827.01 863.27 1826.78C863.27 1826.55 863.27 1826.33 863.27 1826.1C863.27 1825.87 863.27 1825.64 863.27 1825.41C863.27 1825.18 863.27 1824.94 863.27 1824.71C863.27 1824.48 863.27 1824.25 863.27 1824.01C863.27 1823.78 863.27 1823.55 863.27 1823.31C863.27 1823.08 863.27 1822.85 863.27 1822.61C863.27 1822.37 863.27 1822.14 863.27 1821.9C863.27 1821.67 863.27 1821.43 863.27 1821.19C863.27 1820.95 863.27 1820.72 863.27 1820.48C863.27 1820.24 863.27 1820 863.27 1819.76C863.27 1819.52 863.27 1819.28 863.27 1819.04C863.27 1818.8 863.27 1818.55 863.27 1818.31C863.27 1818.07 863.27 1817.83 863.27 1817.58C863.27 1817.34 863.27 1817.1 863.27 1816.85C863.27 1816.61 863.27 1816.36 863.27 1816.12C863.27 1815.87 863.27 1815.62 863.27 1815.38C863.27 1815.13 863.27 1814.88 863.27 1814.63C863.27 1814.39 863.27 1814.14 863.27 1813.89C863.27 1813.64 863.27 1813.39 863.27 1813.14C863.27 1812.89 863.27 1812.64 863.27 1812.38C863.27 1812.13 863.27 1811.88 863.27 1811.63C863.27 1811.37 863.27 1811.12 863.27 1810.87C863.27 1810.61 863.27 1810.36 863.27 1810.1C863.27 1809.85 863.27 1809.59 863.27 1809.34C863.27 1809.08 863.27 1808.82 863.27 1808.56C863.27 1808.31 863.27 1808.05 863.27 1807.79C863.27 1807.53 863.27 1807.27 863.27 1807.01C863.27 1806.75 863.27 1806.49 863.27 1806.23C863.27 1805.97 863.27 1805.71 863.27 1805.44C863.27 1805.18 863.27 1804.92 863.27 1804.66C863.27 1804.39 863.27 1804.13 863.27 1803.86C863.27 1803.6 863.27 1803.33 863.27 1803.07C863.27 1802.8 863.27 1802.53 863.27 1802.27C863.27 1802 863.27 1801.73 863.27 1801.46C863.27 1801.2 863.27 1800.93 863.27 1800.66C863.27 1800.39 863.27 1800.12 863.27 1799.85C863.27 1799.58 863.27 1799.3 863.27 1799.03C863.27 1798.76 863.27 1798.49 863.27 1798.21C863.27 1797.94 863.27 1797.67 863.27 1797.39C863.27 1797.12 863.27 1796.84 863.27 1796.57C863.27 1796.29 863.27 1796.02 863.27 1795.74C863.27 1795.46 863.27 1795.19 863.27 1794.91C863.27 1794.63 863.27 1794.35 863.27 1794.07C863.27 1793.79 863.27 1793.51 863.27 1793.23C863.27 1792.95 863.27 1792.67 863.27 1792.39C863.27 1792.11 863.27 1791.83 863.27 1791.54C863.27 1791.26 863.27 1790.98 863.27 1790.69C863.27 1790.41 863.27 1790.12 863.27 1789.84C863.27 1789.55 863.27 1789.27 863.27 1788.98C863.27 1788.7 863.27 1788.41 863.27 1788.12C863.27 1787.83 863.27 1787.54 863.27 1787.26C863.27 1786.97 863.27 1786.68 863.27 1786.39C863.27 1786.1 863.27 1785.81 863.27 1785.51C863.27 1785.22 863.27 1784.93 863.27 1784.64C863.27 1784.35 863.27 1784.05 863.27 1783.76C863.27 1783.47 863.27 1783.17 863.27 1782.88C863.27 1782.58 863.27 1782.29 863.27 1781.99C863.27 1781.69 863.27 1781.4 863.27 1781.1C863.27 1780.8 863.27 1780.5 863.27 1780.21C863.27 1779.91 863.27 1779.61 863.27 1779.31C863.27 1779.01 863.27 1778.71 863.27 1778.41C863.27 1778.1 863.27 1777.8 863.27 1777.5C863.27 1777.2 863.27 1776.9 863.27 1776.59C863.27 1776.29 863.27 1775.98 863.27 1775.68C863.27 1775.37 863.27 1775.07 863.27 1774.76C863.27 1774.46 863.27 1774.15 863.27 1773.84C863.27 1773.54 863.27 1773.23 863.27 1772.92C863.27 1772.61 863.27 1772.3 863.27 1771.99C863.27 1771.68 863.27 1771.37 863.27 1771.06C863.27 1770.75 863.27 1770.44 863.27 1770.13C863.27 1769.81 863.27 1769.5 863.27 1769.19C863.27 1768.87 863.27 1768.56 863.27 1768.25C863.27 1767.93 863.27 1767.62 863.27 1767.3C863.27 1766.98 863.27 1766.67 863.27 1766.35C863.27 1766.03 863.27 1765.71 863.27 1765.4C863.27 1765.08 863.27 1764.76 863.27 1764.44C863.27 1764.12 863.27 1763.8 863.27 1763.48C863.27 1763.16 863.27 1762.84 863.27 1762.51C863.27 1762.19 863.27 1761.87 863.27 1761.54C863.27 1761.22 863.27 1760.9 863.27 1760.57C863.27 1760.25 863.27 1759.92 863.27 1759.6C863.27 1759.27 863.27 1758.94 863.27 1758.62C863.27 1758.29 863.27 1757.96 863.27 1757.63C863.27 1757.31 863.27 1756.98 863.27 1756.65C863.27 1756.32 863.27 1755.99 863.27 1755.66C863.27 1755.32 863.27 1754.99 863.27 1754.66C863.27 1754.33 863.27 1754 863.27 1753.66C863.27 1753.33 863.27 1752.99 863.27 1752.66C863.27 1752.33 863.27 1751.99 863.27 1751.65C863.27 1751.32 863.27 1750.98 863.27 1750.64C863.27 1750.31 863.27 1749.97 863.27 1749.63C863.27 1749.29 863.27 1748.95 863.27 1748.61C863.27 1748.27 863.27 1747.93 863.27 1747.59C863.27 1747.25 863.27 1746.91 863.27 1746.57C863.27 1746.22 863.27 1745.88 863.27 1745.54C863.27 1745.19 863.27 1744.85 863.27 1744.51C863.27 1744.16 863.27 1743.82 863.27 1743.47C863.27 1743.12 863.27 1742.78 863.27 1742.43C863.27 1742.08 863.27 1741.73 863.27 1741.38C863.27 1741.04 863.27 1740.69 863.27 1740.34C863.27 1739.99 863.27 1739.64 863.27 1739.29C863.27 1738.93 863.27 1738.58 863.27 1738.23C863.27 1737.88 863.27 1737.52 863.27 1737.17C863.27 1736.82 863.27 1736.46 863.27 1736.11C863.27 1735.75 863.27 1735.4 863.27 1735.04C863.27 1734.68 863.27 1734.33 863.27 1733.97C863.27 1733.61 863.27 1733.25 863.27 1732.89C863.27 1732.54 863.27 1732.18 863.27 1731.82C863.27 1731.46 863.27 1731.09 863.27 1730.73C863.27 1730.37 863.27 1730.01 863.27 1729.65C863.27 1729.28 863.27 1728.92 863.27 1728.56C863.27 1728.19 863.27 1727.83 863.27 1727.46C863.27 1727.1 863.27 1726.73 863.27 1726.37C863.27 1726 863.27 1725.63 863.27 1725.26C863.27 1724.9 863.27 1724.53 863.27 1724.16C863.27 1723.79 863.27 1723.42 863.27 1723.05C863.27 1722.68 863.27 1722.31 863.27 1721.94C863.27 1721.56 863.27 1721.19 863.27 1720.82C863.27 1720.44 863.27 1720.07 863.27 1719.7C863.27 1719.32 863.27 1718.95 863.27 1718.57C863.27 1718.2 863.27 1717.82 863.27 1717.44C863.27 1717.07 863.27 1716.69 863.27 1716.31C863.27 1715.93 863.27 1715.55 863.27 1715.17C863.27 1714.79 863.27 1714.41 863.27 1714.03C863.27 1713.65 863.27 1713.27 863.27 1712.89C863.27 1712.51 863.27 1712.12 863.27 1711.74C863.27 1711.36 863.27 1710.97 863.27 1710.59C863.27 1710.2 863.27 1709.82 863.27 1709.43C863.27 1709.04 863.27 1708.66 863.27 1708.27C863.27 1707.88 863.27 1707.5 863.27 1707.11C863.27 1706.72 863.27 1706.33 863.27 1705.94C863.27 1705.55 863.27 1705.16 863.27 1704.77C863.27 1704.38 863.27 1703.98 863.27 1703.59C863.27 1703.2 863.27 1702.8 863.27 1702.41C863.27 1702.02 863.27 1701.62 863.27 1701.23C863.27 1700.83 863.27 1700.44 863.27 1700.04C863.27 1699.64 863.27 1699.25 863.27 1698.85C863.27 1698.45 863.27 1698.05 863.27 1697.65C863.27 1697.25 863.27 1696.85 863.27 1696.45C863.27 1696.05 863.27 1695.65 863.27 1695.25C863.27 1694.85 863.27 1694.44 863.27 1694.04C863.27 1693.64 863.27 1693.23 863.27 1692.83C863.27 1692.43 863.27 1692.02 863.27 1691.61C863.27 1691.21 863.27 1690.8 863.27 1690.4C863.27 1689.99 863.27 1689.58 863.27 1689.17C863.27 1688.76 863.27 1688.35 863.27 1687.94C863.27 1687.53 863.27 1687.12 863.27 1686.71C863.27 1686.3 863.27 1685.89 863.27 1685.48C863.27 1685.07 863.27 1684.65 863.27 1684.24C863.27 1683.82 863.27 1683.41 863.27 1683C863.27 1682.58 863.27 1682.16 863.27 1681.75C863.27 1681.33 863.27 1680.91 863.27 1680.5C863.27 1680.08 863.27 1679.66 863.27 1679.24C863.27 1678.82 863.27 1678.4 863.27 1677.98C863.27 1677.56 863.27 1677.14 863.27 1676.72C863.27 1676.3 863.27 1675.87 863.27 1675.45C863.27 1675.03 863.27 1674.6 863.27 1674.18C863.27 1673.76 863.27 1673.33 863.27 1672.9C863.27 1672.48 863.27 1672.05 863.27 1671.62C863.27 1671.2 863.27 1670.77 863.27 1670.34C863.27 1669.91 863.27 1669.48 863.27 1669.05C863.27 1668.62 863.27 1668.19 863.27 1667.76C863.27 1667.33 863.27 1666.9 863.27 1666.47C863.27 1666.03 863.27 1665.6 863.27 1665.17C863.27 1664.73 863.27 1664.3 863.27 1663.86C863.27 1663.43 863.27 1662.99 863.27 1662.56C863.27 1662.12 863.27 1661.68 863.27 1661.24C863.27 1660.81 863.27 1660.37 863.27 1659.93C863.27 1659.49 863.27 1659.05 863.27 1658.61C863.27 1658.17 863.27 1657.73 863.27 1657.28C863.27 1656.84 863.27 1656.4 863.27 1655.96C863.27 1655.51 863.27 1655.07 863.27 1654.62C863.27 1654.18 863.27 1653.73 863.27 1653.29C863.27 1652.84 863.27 1652.4 863.27 1651.95C863.27 1651.5 863.27 1651.05 863.27 1650.6C863.27 1650.15 863.27 1649.7 863.27 1649.25C863.27 1648.8 863.27 1648.35 863.27 1647.9C863.27 1647.45 863.27 1647 863.27 1646.55C863.27 1646.09 863.27 1645.64 863.27 1645.19C863.27 1644.73 863.27 1644.28 863.27 1643.82C863.27 1643.36 863.27 1642.91 863.27 1642.45C863.27 1641.99 863.27 1641.54 863.27 1641.08C863.27 1640.62 863.27 1640.16 863.27 1639.7C863.27 1639.24 863.27 1638.78 863.27 1638.32C863.27 1637.86 863.27 1637.4 863.27 1636.93C863.27 1636.47 863.27 1636.01 863.27 1635.55C863.27 1635.08 863.27 1634.62 863.27 1634.15C863.27 1633.69 863.27 1633.22 863.27 1632.75C863.27 1632.29 863.27 1631.82 863.27 1631.35C863.27 1630.88 863.27 1630.42 863.27 1629.95C863.27 1629.48 863.27 1629.01 863.27 1628.54C863.27 1628.07 863.27 1627.59 863.27 1627.12C863.27 1626.65 863.27 1626.18 863.27 1625.7C863.27 1625.23 863.27 1624.76 863.27 1624.28C863.27 1623.81 863.27 1623.33 863.27 1622.85C863.27 1622.38 863.27 1621.9 863.27 1621.42C863.27 1620.95 863.27 1620.47 863.27 1619.99C863.27 1619.51 863.27 1619.03 863.27 1618.55C863.27 1618.07 863.27 1617.59 863.27 1617.11C863.27 1616.62 863.27 1616.14 863.27 1615.66C863.27 1615.17 863.27 1614.69 863.27 1614.21C863.27 1613.72 863.27 1613.24 863.27 1612.75C863.27 1612.26 863.27 1611.78 863.27 1611.29C863.27 1610.8 863.27 1610.31 863.27 1609.83C863.27 1609.34 863.27 1608.85 863.27 1608.36C863.27 1607.87 863.27 1607.38 863.27 1606.88C863.27 1606.39 863.27 1605.9 863.27 1605.41C863.27 1604.92 863.27 1604.42 863.27 1603.93C863.27 1603.43 863.27 1602.94 863.27 1602.44C863.27 1601.95 863.27 1601.45 863.27 1600.95C863.27 1600.46 863.27 1599.96 863.27 1599.46C863.27 1598.96 863.27 1598.46 863.27 1597.96C863.27 1597.46 863.27 1596.96 863.27 1596.46C863.27 1595.96 863.27 1595.46 863.27 1594.95C863.27 1594.45 863.27 1593.95 863.27 1593.44C863.27 1592.94 863.27 1592.43 863.27 1591.93C863.27 1591.42 863.27 1590.92 863.27 1590.41C863.27 1589.9 863.27 1589.39 863.27 1588.89C863.27 1588.38 863.27 1587.87 863.27 1587.36C863.27 1586.85 863.27 1586.34 863.27 1585.83C863.27 1585.32 863.27 1584.8 863.27 1584.29C863.27 1583.78 863.27 1583.26 863.27 1582.75C863.27 1582.24 863.27 1581.72 863.27 1581.21C863.27 1580.69 863.27 1580.17 863.27 1579.66C863.27 1579.14 863.27 1578.62 863.27 1578.1C863.27 1577.59 863.27 1577.07 863.27 1576.55C863.27 1576.03 863.27 1575.51 863.27 1574.99C863.27 1574.46 863.27 1573.94 863.27 1573.42C863.27 1572.9 863.27 1572.37 863.27 1571.85C863.27 1571.33 863.27 1570.8 863.27 1570.28C863.27 1569.75 863.27 1569.22 863.27 1568.7C863.27 1568.17 863.27 1567.64 863.27 1567.11C863.27 1566.59 863.27 1566.06 863.27 1565.53C863.27 1565 863.27 1564.47 863.27 1563.94C863.27 1563.4 863.27 1562.87 863.27 1562.34C863.27 1561.81 863.27 1561.27 863.27 1560.74C863.27 1560.21 863.27 1559.67 863.27 1559.14C863.27 1558.6 863.27 1558.06 863.27 1557.53C863.27 1556.99 863.27 1556.45 863.27 1555.91C863.27 1555.38 863.27 1554.84 863.27 1554.3C863.27 1553.76 863.27 1553.22 863.27 1552.68C863.27 1552.13 863.27 1551.59 863.27 1551.05C863.27 1550.51 863.27 1549.96 863.27 1549.42C863.27 1548.88 863.27 1548.33 863.27 1547.79C863.27 1547.24 863.27 1546.69 863.27 1546.15C863.27 1545.6 863.27 1545.05 863.27 1544.5C863.27 1543.96 863.27 1543.41 863.27 1542.86C863.27 1542.31 863.27 1541.76 863.27 1541.2C863.27 1540.65 863.27 1540.1 863.27 1539.55C863.27 1539 863.27 1538.44 863.27 1537.89C863.27 1537.33 863.27 1536.78 863.27 1536.22C863.27 1535.67 863.27 1535.11 863.27 1534.55C863.27 1534 863.27 1533.44 863.27 1532.88C863.27 1532.32 863.27 1531.76 863.27 1531.2C863.27 1530.64 863.27 1530.08 863.27 1529.52C863.27 1528.96 863.27 1528.4 863.27 1527.83C863.27 1527.27 863.27 1526.71 863.27 1526.14C863.27 1525.58 863.27 1525.01 863.27 1524.45C863.27 1523.88 863.27 1523.31 863.27 1522.75C863.27 1522.18 863.27 1521.61 863.27 1521.04C863.27 1520.47 863.27 1519.91 863.27 1519.34C863.27 1518.76 863.27 1518.19 863.27 1517.62C863.27 1517.05 863.27 1516.48 863.27 1515.9C863.27 1515.33 863.27 1514.76 863.27 1514.18C863.27 1513.61 863.27 1513.03 863.27 1512.46C863.27 1511.88 863.27 1511.3 863.27 1510.73C863.27 1510.15 863.27 1509.57 863.27 1508.99C863.27 1508.41 863.27 1507.83 863.27 1507.25C863.27 1506.67 863.27 1506.09 863.27 1505.51C863.27 1504.93 863.27 1504.34 863.27 1503.76C863.27 1503.18 863.27 1502.59 863.27 1502.01C863.27 1501.42 863.27 1500.84 863.27 1500.25C863.27 1499.67 863.27 1499.08 863.27 1498.49C863.27 1497.9 863.27 1497.31 863.27 1496.72C863.27 1496.14 863.27 1495.54 863.27 1494.95C863.27 1494.36 863.27 1493.77 863.27 1493.18C863.27 1492.59 863.27 1491.99 863.27 1491.4C863.27 1490.81 863.27 1490.21 863.27 1489.62C863.27 1489.02 863.27 1488.43 863.27 1487.83C863.27 1487.23 863.27 1486.63 863.27 1486.04C863.27 1485.44 863.27 1484.84 863.27 1484.24C863.27 1483.64 863.27 1483.04 863.27 1482.44C863.27 1481.84 863.27 1481.24 863.27 1480.63C863.27 1480.03 863.27 1479.43 863.27 1478.82C863.27 1478.22 863.27 1477.61 863.27 1477.01C863.27 1476.4 863.27 1475.8 863.27 1475.19C863.27 1474.58 863.27 1473.97 863.27 1473.36C863.27 1472.76 863.27 1472.15 863.27 1471.54C863.27 1470.93 863.27 1470.32 863.27 1469.7C863.27 1469.09 863.27 1468.48 863.27 1467.87H779.27C779.27 1468.48 779.27 1469.09 779.27 1469.7C779.27 1470.32 779.27 1470.93 779.27 1471.54C779.27 1472.15 779.27 1472.76 779.27 1473.36C779.27 1473.97 779.27 1474.58 779.27 1475.19C779.27 1475.8 779.27 1476.4 779.27 1477.01C779.27 1477.61 779.27 1478.22 779.27 1478.82C779.27 1479.43 779.27 1480.03 779.27 1480.63C779.27 1481.24 779.27 1481.84 779.27 1482.44C779.27 1483.04 779.27 1483.64 779.27 1484.24C779.27 1484.84 779.27 1485.44 779.27 1486.04C779.27 1486.63 779.27 1487.23 779.27 1487.83C779.27 1488.43 779.27 1489.02 779.27 1489.62C779.27 1490.21 779.27 1490.81 779.27 1491.4C779.27 1491.99 779.27 1492.59 779.27 1493.18C779.27 1493.77 779.27 1494.36 779.27 1494.95C779.27 1495.54 779.27 1496.14 779.27 1496.72C779.27 1497.31 779.27 1497.9 779.27 1498.49C779.27 1499.08 779.27 1499.67 779.27 1500.25C779.27 1500.84 779.27 1501.42 779.27 1502.01C779.27 1502.59 779.27 1503.18 779.27 1503.76C779.27 1504.34 779.27 1504.93 779.27 1505.51C779.27 1506.09 779.27 1506.67 779.27 1507.25C779.27 1507.83 779.27 1508.41 779.27 1508.99C779.27 1509.57 779.27 1510.15 779.27 1510.73C779.27 1511.3 779.27 1511.88 779.27 1512.46C779.27 1513.03 779.27 1513.61 779.27 1514.18C779.27 1514.76 779.27 1515.33 779.27 1515.9C779.27 1516.48 779.27 1517.05 779.27 1517.62C779.27 1518.19 779.27 1518.76 779.27 1519.34C779.27 1519.91 779.27 1520.47 779.27 1521.04C779.27 1521.61 779.27 1522.18 779.27 1522.75C779.27 1523.31 779.27 1523.88 779.27 1524.45C779.27 1525.01 779.27 1525.58 779.27 1526.14C779.27 1526.71 779.27 1527.27 779.27 1527.83C779.27 1528.4 779.27 1528.96 779.27 1529.52C779.27 1530.08 779.27 1530.64 779.27 1531.2C779.27 1531.76 779.27 1532.32 779.27 1532.88C779.27 1533.44 779.27 1534 779.27 1534.55C779.27 1535.11 779.27 1535.67 779.27 1536.22C779.27 1536.78 779.27 1537.33 779.27 1537.89C779.27 1538.44 779.27 1539 779.27 1539.55C779.27 1540.1 779.27 1540.65 779.27 1541.2C779.27 1541.76 779.27 1542.31 779.27 1542.86C779.27 1543.41 779.27 1543.96 779.27 1544.5C779.27 1545.05 779.27 1545.6 779.27 1546.15C779.27 1546.69 779.27 1547.24 779.27 1547.79C779.27 1548.33 779.27 1548.88 779.27 1549.42C779.27 1549.96 779.27 1550.51 779.27 1551.05C779.27 1551.59 779.27 1552.13 779.27 1552.68C779.27 1553.22 779.27 1553.76 779.27 1554.3C779.27 1554.84 779.27 1555.38 779.27 1555.91C779.27 1556.45 779.27 1556.99 779.27 1557.53C779.27 1558.06 779.27 1558.6 779.27 1559.14C779.27 1559.67 779.27 1560.21 779.27 1560.74C779.27 1561.27 779.27 1561.81 779.27 1562.34C779.27 1562.87 779.27 1563.4 779.27 1563.94C779.27 1564.47 779.27 1565 779.27 1565.53C779.27 1566.06 779.27 1566.59 779.27 1567.11C779.27 1567.64 779.27 1568.17 779.27 1568.7C779.27 1569.22 779.27 1569.75 779.27 1570.28C779.27 1570.8 779.27 1571.33 779.27 1571.85C779.27 1572.37 779.27 1572.9 779.27 1573.42C779.27 1573.94 779.27 1574.46 779.27 1574.99C779.27 1575.51 779.27 1576.03 779.27 1576.55C779.27 1577.07 779.27 1577.59 779.27 1578.1C779.27 1578.62 779.27 1579.14 779.27 1579.66C779.27 1580.17 779.27 1580.69 779.27 1581.21C779.27 1581.72 779.27 1582.24 779.27 1582.75C779.27 1583.26 779.27 1583.78 779.27 1584.29C779.27 1584.8 779.27 1585.32 779.27 1585.83C779.27 1586.34 779.27 1586.85 779.27 1587.36C779.27 1587.87 779.27 1588.38 779.27 1588.89C779.27 1589.39 779.27 1589.9 779.27 1590.41C779.27 1590.92 779.27 1591.42 779.27 1591.93C779.27 1592.43 779.27 1592.94 779.27 1593.44C779.27 1593.95 779.27 1594.45 779.27 1594.95C779.27 1595.46 779.27 1595.96 779.27 1596.46C779.27 1596.96 779.27 1597.46 779.27 1597.96C779.27 1598.46 779.27 1598.96 779.27 1599.46C779.27 1599.96 779.27 1600.46 779.27 1600.95C779.27 1601.45 779.27 1601.95 779.27 1602.44C779.27 1602.94 779.27 1603.43 779.27 1603.93C779.27 1604.42 779.27 1604.92 779.27 1605.41C779.27 1605.9 779.27 1606.39 779.27 1606.88C779.27 1607.38 779.27 1607.87 779.27 1608.36C779.27 1608.85 779.27 1609.34 779.27 1609.83C779.27 1610.31 779.27 1610.8 779.27 1611.29C779.27 1611.78 779.27 1612.26 779.27 1612.75C779.27 1613.24 779.27 1613.72 779.27 1614.21C779.27 1614.69 779.27 1615.17 779.27 1615.66C779.27 1616.14 779.27 1616.62 779.27 1617.11C779.27 1617.59 779.27 1618.07 779.27 1618.55C779.27 1619.03 779.27 1619.51 779.27 1619.99C779.27 1620.47 779.27 1620.95 779.27 1621.42C779.27 1621.9 779.27 1622.38 779.27 1622.85C779.27 1623.33 779.27 1623.81 779.27 1624.28C779.27 1624.76 779.27 1625.23 779.27 1625.7C779.27 1626.18 779.27 1626.65 779.27 1627.12C779.27 1627.59 779.27 1628.07 779.27 1628.54C779.27 1629.01 779.27 1629.48 779.27 1629.95C779.27 1630.42 779.27 1630.88 779.27 1631.35C779.27 1631.82 779.27 1632.29 779.27 1632.75C779.27 1633.22 779.27 1633.69 779.27 1634.15C779.27 1634.62 779.27 1635.08 779.27 1635.55C779.27 1636.01 779.27 1636.47 779.27 1636.93C779.27 1637.4 779.27 1637.86 779.27 1638.32C779.27 1638.78 779.27 1639.24 779.27 1639.7C779.27 1640.16 779.27 1640.62 779.27 1641.08C779.27 1641.54 779.27 1641.99 779.27 1642.45C779.27 1642.91 779.27 1643.36 779.27 1643.82C779.27 1644.28 779.27 1644.73 779.27 1645.19C779.27 1645.64 779.27 1646.09 779.27 1646.55C779.27 1647 779.27 1647.45 779.27 1647.9C779.27 1648.35 779.27 1648.8 779.27 1649.25C779.27 1649.7 779.27 1650.15 779.27 1650.6C779.27 1651.05 779.27 1651.5 779.27 1651.95C779.27 1652.4 779.27 1652.84 779.27 1653.29C779.27 1653.73 779.27 1654.18 779.27 1654.62C779.27 1655.07 779.27 1655.51 779.27 1655.96C779.27 1656.4 779.27 1656.84 779.27 1657.28C779.27 1657.73 779.27 1658.17 779.27 1658.61C779.27 1659.05 779.27 1659.49 779.27 1659.93C779.27 1660.37 779.27 1660.81 779.27 1661.24C779.27 1661.68 779.27 1662.12 779.27 1662.56C779.27 1662.99 779.27 1663.43 779.27 1663.86C779.27 1664.3 779.27 1664.73 779.27 1665.17C779.27 1665.6 779.27 1666.03 779.27 1666.47C779.27 1666.9 779.27 1667.33 779.27 1667.76C779.27 1668.19 779.27 1668.62 779.27 1669.05C779.27 1669.48 779.27 1669.91 779.27 1670.34C779.27 1670.77 779.27 1671.2 779.27 1671.62C779.27 1672.05 779.27 1672.48 779.27 1672.9C779.27 1673.33 779.27 1673.76 779.27 1674.18C779.27 1674.6 779.27 1675.03 779.27 1675.45C779.27 1675.87 779.27 1676.3 779.27 1676.72C779.27 1677.14 779.27 1677.56 779.27 1677.98C779.27 1678.4 779.27 1678.82 779.27 1679.24C779.27 1679.66 779.27 1680.08 779.27 1680.5C779.27 1680.91 779.27 1681.33 779.27 1681.75C779.27 1682.16 779.27 1682.58 779.27 1683C779.27 1683.41 779.27 1683.82 779.27 1684.24C779.27 1684.65 779.27 1685.07 779.27 1685.48C779.27 1685.89 779.27 1686.3 779.27 1686.71C779.27 1687.12 779.27 1687.53 779.27 1687.94C779.27 1688.35 779.27 1688.76 779.27 1689.17C779.27 1689.58 779.27 1689.99 779.27 1690.4C779.27 1690.8 779.27 1691.21 779.27 1691.61C779.27 1692.02 779.27 1692.43 779.27 1692.83C779.27 1693.23 779.27 1693.64 779.27 1694.04C779.27 1694.44 779.27 1694.85 779.27 1695.25C779.27 1695.65 779.27 1696.05 779.27 1696.45C779.27 1696.85 779.27 1697.25 779.27 1697.65C779.27 1698.05 779.27 1698.45 779.27 1698.85C779.27 1699.25 779.27 1699.64 779.27 1700.04C779.27 1700.44 779.27 1700.83 779.27 1701.23C779.27 1701.62 779.27 1702.02 779.27 1702.41C779.27 1702.8 779.27 1703.2 779.27 1703.59C779.27 1703.98 779.27 1704.38 779.27 1704.77C779.27 1705.16 779.27 1705.55 779.27 1705.94C779.27 1706.33 779.27 1706.72 779.27 1707.11C779.27 1707.5 779.27 1707.88 779.27 1708.27C779.27 1708.66 779.27 1709.04 779.27 1709.43C779.27 1709.82 779.27 1710.2 779.27 1710.59C779.27 1710.97 779.27 1711.36 779.27 1711.74C779.27 1712.12 779.27 1712.51 779.27 1712.89C779.27 1713.27 779.27 1713.65 779.27 1714.03C779.27 1714.41 779.27 1714.79 779.27 1715.17C779.27 1715.55 779.27 1715.93 779.27 1716.31C779.27 1716.69 779.27 1717.07 779.27 1717.44C779.27 1717.82 779.27 1718.2 779.27 1718.57C779.27 1718.95 779.27 1719.32 779.27 1719.7C779.27 1720.07 779.27 1720.44 779.27 1720.82C779.27 1721.19 779.27 1721.56 779.27 1721.94C779.27 1722.31 779.27 1722.68 779.27 1723.05C779.27 1723.42 779.27 1723.79 779.27 1724.16C779.27 1724.53 779.27 1724.9 779.27 1725.26C779.27 1725.63 779.27 1726 779.27 1726.37C779.27 1726.73 779.27 1727.1 779.27 1727.46C779.27 1727.83 779.27 1728.19 779.27 1728.56C779.27 1728.92 779.27 1729.28 779.27 1729.65C779.27 1730.01 779.27 1730.37 779.27 1730.73C779.27 1731.09 779.27 1731.46 779.27 1731.82C779.27 1732.18 779.27 1732.54 779.27 1732.89C779.27 1733.25 779.27 1733.61 779.27 1733.97C779.27 1734.33 779.27 1734.68 779.27 1735.04C779.27 1735.4 779.27 1735.75 779.27 1736.11C779.27 1736.46 779.27 1736.82 779.27 1737.17C779.27 1737.52 779.27 1737.88 779.27 1738.23C779.27 1738.58 779.27 1738.93 779.27 1739.29C779.27 1739.64 779.27 1739.99 779.27 1740.34C779.27 1740.69 779.27 1741.04 779.27 1741.38C779.27 1741.73 779.27 1742.08 779.27 1742.43C779.27 1742.78 779.27 1743.12 779.27 1743.47C779.27 1743.82 779.27 1744.16 779.27 1744.51C779.27 1744.85 779.27 1745.19 779.27 1745.54C779.27 1745.88 779.27 1746.22 779.27 1746.57C779.27 1746.91 779.27 1747.25 779.27 1747.59C779.27 1747.93 779.27 1748.27 779.27 1748.61C779.27 1748.95 779.27 1749.29 779.27 1749.63C779.27 1749.97 779.27 1750.31 779.27 1750.64C779.27 1750.98 779.27 1751.32 779.27 1751.65C779.27 1751.99 779.27 1752.33 779.27 1752.66C779.27 1752.99 779.27 1753.33 779.27 1753.66C779.27 1754 779.27 1754.33 779.27 1754.66C779.27 1754.99 779.27 1755.32 779.27 1755.66C779.27 1755.99 779.27 1756.32 779.27 1756.65C779.27 1756.98 779.27 1757.31 779.27 1757.63C779.27 1757.96 779.27 1758.29 779.27 1758.62C779.27 1758.94 779.27 1759.27 779.27 1759.6C779.27 1759.92 779.27 1760.25 779.27 1760.57C779.27 1760.9 779.27 1761.22 779.27 1761.54C779.27 1761.87 779.27 1762.19 779.27 1762.51C779.27 1762.84 779.27 1763.16 779.27 1763.48C779.27 1763.8 779.27 1764.12 779.27 1764.44C779.27 1764.76 779.27 1765.08 779.27 1765.4C779.27 1765.71 779.27 1766.03 779.27 1766.35C779.27 1766.67 779.27 1766.98 779.27 1767.3C779.27 1767.62 779.27 1767.93 779.27 1768.25C779.27 1768.56 779.27 1768.87 779.27 1769.19C779.27 1769.5 779.27 1769.81 779.27 1770.13C779.27 1770.44 779.27 1770.75 779.27 1771.06C779.27 1771.37 779.27 1771.68 779.27 1771.99C779.27 1772.3 779.27 1772.61 779.27 1772.92C779.27 1773.23 779.27 1773.54 779.27 1773.84C779.27 1774.15 779.27 1774.46 779.27 1774.76C779.27 1775.07 779.27 1775.37 779.27 1775.68C779.27 1775.98 779.27 1776.29 779.27 1776.59C779.27 1776.9 779.27 1777.2 779.27 1777.5C779.27 1777.8 779.27 1778.1 779.27 1778.41C779.27 1778.71 779.27 1779.01 779.27 1779.31C779.27 1779.61 779.27 1779.91 779.27 1780.21C779.27 1780.5 779.27 1780.8 779.27 1781.1C779.27 1781.4 779.27 1781.69 779.27 1781.99C779.27 1782.29 779.27 1782.58 779.27 1782.88C779.27 1783.17 779.27 1783.47 779.27 1783.76C779.27 1784.05 779.27 1784.35 779.27 1784.64C779.27 1784.93 779.27 1785.22 779.27 1785.51C779.27 1785.81 779.27 1786.1 779.27 1786.39C779.27 1786.68 779.27 1786.97 779.27 1787.26C779.27 1787.54 779.27 1787.83 779.27 1788.12C779.27 1788.41 779.27 1788.7 779.27 1788.98C779.27 1789.27 779.27 1789.55 779.27 1789.84C779.27 1790.12 779.27 1790.41 779.27 1790.69C779.27 1790.98 779.27 1791.26 779.27 1791.54C779.27 1791.83 779.27 1792.11 779.27 1792.39C779.27 1792.67 779.27 1792.95 779.27 1793.23C779.27 1793.51 779.27 1793.79 779.27 1794.07C779.27 1794.35 779.27 1794.63 779.27 1794.91C779.27 1795.19 779.27 1795.46 779.27 1795.74C779.27 1796.02 779.27 1796.29 779.27 1796.57C779.27 1796.84 779.27 1797.12 779.27 1797.39C779.27 1797.67 779.27 1797.94 779.27 1798.21C779.27 1798.49 779.27 1798.76 779.27 1799.03C779.27 1799.3 779.27 1799.58 779.27 1799.85C779.27 1800.12 779.27 1800.39 779.27 1800.66C779.27 1800.93 779.27 1801.2 779.27 1801.46C779.27 1801.73 779.27 1802 779.27 1802.27C779.27 1802.53 779.27 1802.8 779.27 1803.07C779.27 1803.33 779.27 1803.6 779.27 1803.86C779.27 1804.13 779.27 1804.39 779.27 1804.66C779.27 1804.92 779.27 1805.18 779.27 1805.44C779.27 1805.71 779.27 1805.97 779.27 1806.23C779.27 1806.49 779.27 1806.75 779.27 1807.01C779.27 1807.27 779.27 1807.53 779.27 1807.79C779.27 1808.05 779.27 1808.31 779.27 1808.56C779.27 1808.82 779.27 1809.08 779.27 1809.34C779.27 1809.59 779.27 1809.85 779.27 1810.1C779.27 1810.36 779.27 1810.61 779.27 1810.87C779.27 1811.12 779.27 1811.37 779.27 1811.63C779.27 1811.88 779.27 1812.13 779.27 1812.38C779.27 1812.64 779.27 1812.89 779.27 1813.14C779.27 1813.39 779.27 1813.64 779.27 1813.89C779.27 1814.14 779.27 1814.39 779.27 1814.63C779.27 1814.88 779.27 1815.13 779.27 1815.38C779.27 1815.62 779.27 1815.87 779.27 1816.12C779.27 1816.36 779.27 1816.61 779.27 1816.85C779.27 1817.1 779.27 1817.34 779.27 1817.58C779.27 1817.83 779.27 1818.07 779.27 1818.31C779.27 1818.55 779.27 1818.8 779.27 1819.04C779.27 1819.28 779.27 1819.52 779.27 1819.76C779.27 1820 779.27 1820.24 779.27 1820.48C779.27 1820.72 779.27 1820.95 779.27 1821.19C779.27 1821.43 779.27 1821.67 779.27 1821.9C779.27 1822.14 779.27 1822.37 779.27 1822.61C779.27 1822.85 779.27 1823.08 779.27 1823.31C779.27 1823.55 779.27 1823.78 779.27 1824.01C779.27 1824.25 779.27 1824.48 779.27 1824.71C779.27 1824.94 779.27 1825.18 779.27 1825.41C779.27 1825.64 779.27 1825.87 779.27 1826.1C779.27 1826.33 779.27 1826.55 779.27 1826.78C779.27 1827.01 779.27 1827.24 779.27 1827.47C779.27 1827.69 779.27 1827.92 779.27 1828.15C779.27 1828.37 779.27 1828.6 779.27 1828.82C779.27 1829.05 779.27 1829.27 779.27 1829.49C779.27 1829.72 779.27 1829.94 779.27 1830.16C779.27 1830.39 779.27 1830.61 779.27 1830.83C779.27 1831.05 779.27 1831.27 779.27 1831.49C779.27 1831.71 779.27 1831.93 779.27 1832.15C779.27 1832.37 779.27 1832.59 779.27 1832.81C779.27 1833.02 779.27 1833.24 779.27 1833.46C779.27 1833.68 779.27 1833.89 779.27 1834.11C779.27 1834.32 779.27 1834.54 779.27 1834.75C779.27 1834.97 779.27 1835.18 779.27 1835.39C779.27 1835.61 779.27 1835.82 779.27 1836.03C779.27 1836.25 779.27 1836.46 779.27 1836.67C779.27 1836.88 779.27 1837.09 779.27 1837.3C779.27 1837.51 779.27 1837.72 779.27 1837.93C779.27 1838.14 779.27 1838.34 779.27 1838.55C779.27 1838.76 779.27 1838.97 779.27 1839.17C779.27 1839.38 779.27 1839.59 779.27 1839.79C779.27 1840 779.27 1840.2 779.27 1840.41C779.27 1840.61 779.27 1840.81 779.27 1841.02C779.27 1841.22 779.27 1841.42 779.27 1841.62C779.27 1841.83 779.27 1842.03 779.27 1842.23C779.27 1842.43 779.27 1842.63 779.27 1842.83C779.27 1843.03 779.27 1843.23 779.27 1843.43C779.27 1843.63 779.27 1843.82 779.27 1844.02C779.27 1844.22 779.27 1844.42 779.27 1844.61C779.27 1844.81 779.27 1845 779.27 1845.2C779.27 1845.39 779.27 1845.59 779.27 1845.78C779.27 1845.98 779.27 1846.17 779.27 1846.36C779.27 1846.56 779.27 1846.75 779.27 1846.94C779.27 1847.13 779.27 1847.32 779.27 1847.52C779.27 1847.71 779.27 1847.9 779.27 1848.09C779.27 1848.28 779.27 1848.46 779.27 1848.65C779.27 1848.84 779.27 1849.03 779.27 1849.22C779.27 1849.4 779.27 1849.59 779.27 1849.78C779.27 1849.96 779.27 1850.15 779.27 1850.33C779.27 1850.52 779.27 1850.7 779.27 1850.89C779.27 1851.07 779.27 1851.26 779.27 1851.44C779.27 1851.62 779.27 1851.8 779.27 1851.99C779.27 1852.17 779.27 1852.35 779.27 1852.53C779.27 1852.71 779.27 1852.89 779.27 1853.07C779.27 1853.25 779.27 1853.43 779.27 1853.61C779.27 1853.79 779.27 1853.96 779.27 1854.14C779.27 1854.32 779.27 1854.5 779.27 1854.67C779.27 1854.85 779.27 1855.02 779.27 1855.2C779.27 1855.37 779.27 1855.55 779.27 1855.72C779.27 1855.9 779.27 1856.07 779.27 1856.24C779.27 1856.42 779.27 1856.59 779.27 1856.76C779.27 1856.93 779.27 1857.1 779.27 1857.27C779.27 1857.45 779.27 1857.62 779.27 1857.79C779.27 1857.96 779.27 1858.12 779.27 1858.29C779.27 1858.46 779.27 1858.63 779.27 1858.8C779.27 1858.96 779.27 1859.13 779.27 1859.3C779.27 1859.46 779.27 1859.63 779.27 1859.8C779.27 1859.96 779.27 1860.13 779.27 1860.29C779.27 1860.45 779.27 1860.62 779.27 1860.78C779.27 1860.94 779.27 1861.11 779.27 1861.27C779.27 1861.43 779.27 1861.59 779.27 1861.75C779.27 1861.91 779.27 1862.07 779.27 1862.23C779.27 1862.39 779.27 1862.55 779.27 1862.71C779.27 1862.87 779.27 1863.03 779.27 1863.19C779.27 1863.34 779.27 1863.5 779.27 1863.66C779.27 1863.81 779.27 1863.97 779.27 1864.13C779.27 1864.28 779.27 1864.44 779.27 1864.59C779.27 1864.75 779.27 1864.9 779.27 1865.05C779.27 1865.21 779.27 1865.36 779.27 1865.51C779.27 1865.66 779.27 1865.82 779.27 1865.97C779.27 1866.12 779.27 1866.27 779.27 1866.42C779.27 1866.57 779.27 1866.72 779.27 1866.87C779.27 1867.02 779.27 1867.17 779.27 1867.31C779.27 1867.46 779.27 1867.61 779.27 1867.76C779.27 1867.9 779.27 1868.05 779.27 1868.19C779.27 1868.34 779.27 1868.49 779.27 1868.63C779.27 1868.77 779.27 1868.92 779.27 1869.06C779.27 1869.21 779.27 1869.35 779.27 1869.49C779.27 1869.63 779.27 1869.78 779.27 1869.92C779.27 1870.06 779.27 1870.2 779.27 1870.34C779.27 1870.48 779.27 1870.62 779.27 1870.76C779.27 1870.9 779.27 1871.04 779.27 1871.18C779.27 1871.32 779.27 1871.45 779.27 1871.59C779.27 1871.73 779.27 1871.87 779.27 1872C779.27 1872.14 779.27 1872.27 779.27 1872.41C779.27 1872.54 779.27 1872.68 779.27 1872.81C779.27 1872.95 779.27 1873.08 779.27 1873.21C779.27 1873.35 779.27 1873.48 779.27 1873.61C779.27 1873.74 779.27 1873.87 779.27 1874.01C779.27 1874.14 779.27 1874.27 779.27 1874.4C779.27 1874.53 779.27 1874.66 779.27 1874.78C779.27 1874.91 779.27 1875.04 779.27 1875.17C779.27 1875.3 779.27 1875.42 779.27 1875.55C779.27 1875.68 779.27 1875.8 779.27 1875.93C779.27 1876.06 779.27 1876.18 779.27 1876.31C779.27 1876.43 779.27 1876.55 779.27 1876.68C779.27 1876.8 779.27 1876.92 779.27 1877.05C779.27 1877.17 779.27 1877.29 779.27 1877.41C779.27 1877.53 779.27 1877.66 779.27 1877.78C779.27 1877.9 779.27 1878.02 779.27 1878.14C779.27 1878.26 779.27 1878.37 779.27 1878.49C779.27 1878.61 779.27 1878.73 779.27 1878.85C779.27 1878.96 779.27 1879.08 779.27 1879.2C779.27 1879.31 779.27 1879.43 779.27 1879.54C779.27 1879.66 779.27 1879.77 779.27 1879.89C779.27 1880 779.27 1880.12 779.27 1880.23C779.27 1880.34 779.27 1880.45 779.27 1880.57C779.27 1880.68 779.27 1880.79 779.27 1880.9C779.27 1881.01 779.27 1881.12 779.27 1881.23C779.27 1881.34 779.27 1881.45 779.27 1881.56C779.27 1881.67 779.27 1881.78 779.27 1881.89C779.27 1882 779.27 1882.1 779.27 1882.21C779.27 1882.32 779.27 1882.42 779.27 1882.53C779.27 1882.64 779.27 1882.74 779.27 1882.85C779.27 1882.95 779.27 1883.06 779.27 1883.16C779.27 1883.26 779.27 1883.37 779.27 1883.47C779.27 1883.57 779.27 1883.67 779.27 1883.78C779.27 1883.88 779.27 1883.98 779.27 1884.08C779.27 1884.18 779.27 1884.28 779.27 1884.38C779.27 1884.48 779.27 1884.58 779.27 1884.68C779.27 1884.78 779.27 1884.88 779.27 1884.97C779.27 1885.07 779.27 1885.17 779.27 1885.27C779.27 1885.36 779.27 1885.46 779.27 1885.55C779.27 1885.65 779.27 1885.75 779.27 1885.84C779.27 1885.93 779.27 1886.03 779.27 1886.12C779.27 1886.22 779.27 1886.31 779.27 1886.4C779.27 1886.5 779.27 1886.59 779.27 1886.68C779.27 1886.77 779.27 1886.86 779.27 1886.95C779.27 1887.04 779.27 1887.13 779.27 1887.22C779.27 1887.31 779.27 1887.4 779.27 1887.49C779.27 1887.58 779.27 1887.67 779.27 1887.75C779.27 1887.84 779.27 1887.93 779.27 1888.02C779.27 1888.1 779.27 1888.19 779.27 1888.27C779.27 1888.36 779.27 1888.45 779.27 1888.53C779.27 1888.61 779.27 1888.7 779.27 1888.78C779.27 1888.87 779.27 1888.95 779.27 1889.03C779.27 1889.11 779.27 1889.2 779.27 1889.28C779.27 1889.36 779.27 1889.44 779.27 1889.52C779.27 1889.6 779.27 1889.68 779.27 1889.76C779.27 1889.84 779.27 1889.92 779.27 1890C779.27 1890.08 779.27 1890.16 779.27 1890.23C779.27 1890.31 779.27 1890.39 779.27 1890.47C779.27 1890.54 779.27 1890.62 779.27 1890.69C779.27 1890.77 779.27 1890.84 779.27 1890.92C779.27 1890.99 779.27 1891.07 779.27 1891.14C779.27 1891.22 779.27 1891.29 779.27 1891.36C779.27 1891.43 779.27 1891.51 779.27 1891.58C779.27 1891.65 779.27 1891.72 779.27 1891.79C779.27 1891.86 779.27 1891.93 779.27 1892C779.27 1892.07 779.27 1892.14 779.27 1892.21C779.27 1892.28 779.27 1892.35 779.27 1892.41C779.27 1892.48 779.27 1892.55 779.27 1892.62C779.27 1892.68 779.27 1892.75 779.27 1892.82C779.27 1892.88 779.27 1892.95 779.27 1893.01C779.27 1893.08 779.27 1893.14 779.27 1893.2C779.27 1893.27 779.27 1893.33 779.27 1893.39C779.27 1893.46 779.27 1893.52 779.27 1893.58C779.27 1893.64 779.27 1893.7 779.27 1893.77C779.27 1893.83 779.27 1893.89 779.27 1893.95C779.27 1894.01 779.27 1894.07 779.27 1894.12C779.27 1894.18 779.27 1894.24 779.27 1894.3C779.27 1894.36 779.27 1894.42 779.27 1894.47C779.27 1894.53 779.27 1894.59 779.27 1894.64C779.27 1894.7 779.27 1894.75 779.27 1894.81C779.27 1894.86 779.27 1894.92 779.27 1894.97C779.27 1895.03 779.27 1895.08 779.27 1895.13C779.27 1895.19 779.27 1895.24 779.27 1895.29C779.27 1895.34 779.27 1895.4 779.27 1895.45C779.27 1895.5 779.27 1895.55 779.27 1895.6C779.27 1895.65 779.27 1895.7 779.27 1895.75C779.27 1895.8 779.27 1895.85 779.27 1895.89C779.27 1895.94 779.27 1895.99 779.27 1896.04C779.27 1896.09 779.27 1896.13 779.27 1896.18C779.27 1896.23 779.27 1896.27 779.27 1896.32C779.27 1896.36 779.27 1896.41 779.27 1896.45C779.27 1896.5 779.27 1896.54 779.27 1896.58C779.27 1896.63 779.27 1896.67 779.27 1896.71C779.27 1896.76 779.27 1896.8 779.27 1896.84C779.27 1896.88 779.27 1896.92 779.27 1896.96C779.27 1897 779.27 1897.04 779.27 1897.08C779.27 1897.12 779.27 1897.16 779.27 1897.2C779.27 1897.24 779.27 1897.28 779.27 1897.32C779.27 1897.35 779.27 1897.39 779.27 1897.43C779.27 1897.46 779.27 1897.5 779.27 1897.54C779.27 1897.57 779.27 1897.61 779.27 1897.64C779.27 1897.68 779.27 1897.71 779.27 1897.75C779.27 1897.78 779.27 1897.82 779.27 1897.85C779.27 1897.88 779.27 1897.91 779.27 1897.95C779.27 1897.98 779.27 1898.01 779.27 1898.04C779.27 1898.07 779.27 1898.1 779.27 1898.13C779.27 1898.16 779.27 1898.19 779.27 1898.22C779.27 1898.25 779.27 1898.28 779.27 1898.31C779.27 1898.34 779.27 1898.37 779.27 1898.39C779.27 1898.42 779.27 1898.45 779.27 1898.47C779.27 1898.5 779.27 1898.53 779.27 1898.55C779.27 1898.58 779.27 1898.6 779.27 1898.63C779.27 1898.65 779.27 1898.68 779.27 1898.7C779.27 1898.73 779.27 1898.75 779.27 1898.77C779.27 1898.79 779.27 1898.82 779.27 1898.84C779.27 1898.86 779.27 1898.88 779.27 1898.9C779.27 1898.92 779.27 1898.94 779.27 1898.96C779.27 1898.98 779.27 1899 779.27 1899.02C779.27 1899.04 779.27 1899.06 779.27 1899.08C779.27 1899.1 779.27 1899.11 779.27 1899.13C779.27 1899.15 779.27 1899.17 779.27 1899.18C779.27 1899.2 779.27 1899.22 779.27 1899.23C779.27 1899.25 779.27 1899.26 779.27 1899.28C779.27 1899.29 779.27 1899.3 779.27 1899.32C779.27 1899.33 779.27 1899.34 779.27 1899.36C779.27 1899.37 779.27 1899.38 779.27 1899.39C779.27 1899.41 779.27 1899.42 779.27 1899.43C779.27 1899.44 779.27 1899.45 779.27 1899.46C779.27 1899.47 779.27 1899.48 779.27 1899.49C779.27 1899.5 779.27 1899.51 779.27 1899.51C779.27 1899.52 779.27 1899.53 779.27 1899.54C779.27 1899.54 779.27 1899.55 779.27 1899.56C779.27 1899.56 779.27 1899.57 779.27 1899.57C779.27 1899.58 779.27 1899.58 779.27 1899.59C779.27 1899.59 779.27 1899.6 779.27 1899.6C779.27 1899.61 779.27 1899.61 779.27 1899.61C779.27 1899.61 779.27 1899.62 779.27 1899.62C779.27 1899.62 779.27 1899.62 779.27 1899.62C779.27 1899.62 779.27 1899.62 821.27 1899.62Z" fill="white"/>
<path d="M1899.03 864.796H1941.03V780.796H1899.03V864.796ZM1471.16 780.796C1447.96 780.796 1429.16 799.6 1429.16 822.796C1429.16 845.992 1447.96 864.796 1471.16 864.796V780.796ZM1471.16 864.796C1471.76 864.796 1472.35 864.796 1472.95 864.796C1473.54 864.796 1474.14 864.796 1474.73 864.796C1475.32 864.796 1475.91 864.796 1476.51 864.796C1477.1 864.796 1477.69 864.796 1478.28 864.796C1478.87 864.796 1479.46 864.796 1480.05 864.796C1480.64 864.796 1481.23 864.796 1481.82 864.796C1482.4 864.796 1482.99 864.796 1483.58 864.796C1484.16 864.796 1484.75 864.796 1485.33 864.796C1485.92 864.796 1486.5 864.796 1487.09 864.796C1487.67 864.796 1488.25 864.796 1488.84 864.796C1489.42 864.796 1490 864.796 1490.58 864.796C1491.16 864.796 1491.74 864.796 1492.32 864.796C1492.9 864.796 1493.48 864.796 1494.06 864.796C1494.64 864.796 1495.21 864.796 1495.79 864.796C1496.37 864.796 1496.94 864.796 1497.52 864.796C1498.09 864.796 1498.67 864.796 1499.24 864.796C1499.82 864.796 1500.39 864.796 1500.96 864.796C1501.54 864.796 1502.11 864.796 1502.68 864.796C1503.25 864.796 1503.82 864.796 1504.39 864.796C1504.96 864.796 1505.53 864.796 1506.1 864.796C1506.67 864.796 1507.23 864.796 1507.8 864.796C1508.37 864.796 1508.94 864.796 1509.5 864.796C1510.07 864.796 1510.63 864.796 1511.2 864.796C1511.76 864.796 1512.32 864.796 1512.89 864.796C1513.45 864.796 1514.01 864.796 1514.57 864.796C1515.14 864.796 1515.7 864.796 1516.26 864.796C1516.82 864.796 1517.38 864.796 1517.94 864.796C1518.49 864.796 1519.05 864.796 1519.61 864.796C1520.17 864.796 1520.72 864.796 1521.28 864.796C1521.84 864.796 1522.39 864.796 1522.95 864.796C1523.5 864.796 1524.06 864.796 1524.61 864.796C1525.16 864.796 1525.72 864.796 1526.27 864.796C1526.82 864.796 1527.37 864.796 1527.92 864.796C1528.47 864.796 1529.02 864.796 1529.57 864.796C1530.12 864.796 1530.67 864.796 1531.22 864.796C1531.77 864.796 1532.31 864.796 1532.86 864.796C1533.41 864.796 1533.95 864.796 1534.5 864.796C1535.04 864.796 1535.59 864.796 1536.13 864.796C1536.67 864.796 1537.22 864.796 1537.76 864.796C1538.3 864.796 1538.84 864.796 1539.39 864.796C1539.93 864.796 1540.47 864.796 1541.01 864.796C1541.55 864.796 1542.09 864.796 1542.62 864.796C1543.16 864.796 1543.7 864.796 1544.24 864.796C1544.77 864.796 1545.31 864.796 1545.85 864.796C1546.38 864.796 1546.92 864.796 1547.45 864.796C1547.99 864.796 1548.52 864.796 1549.05 864.796C1549.59 864.796 1550.12 864.796 1550.65 864.796C1551.18 864.796 1551.71 864.796 1552.24 864.796C1552.77 864.796 1553.3 864.796 1553.83 864.796C1554.36 864.796 1554.89 864.796 1555.42 864.796C1555.94 864.796 1556.47 864.796 1557 864.796C1557.52 864.796 1558.05 864.796 1558.57 864.796C1559.1 864.796 1559.62 864.796 1560.15 864.796C1560.67 864.796 1561.19 864.796 1561.72 864.796C1562.24 864.796 1562.76 864.796 1563.28 864.796C1563.8 864.796 1564.32 864.796 1564.84 864.796C1565.36 864.796 1565.88 864.796 1566.4 864.796C1566.92 864.796 1567.43 864.796 1567.95 864.796C1568.47 864.796 1568.98 864.796 1569.5 864.796C1570.02 864.796 1570.53 864.796 1571.04 864.796C1571.56 864.796 1572.07 864.796 1572.58 864.796C1573.1 864.796 1573.61 864.796 1574.12 864.796C1574.63 864.796 1575.14 864.796 1575.65 864.796C1576.16 864.796 1576.67 864.796 1577.18 864.796C1577.69 864.796 1578.2 864.796 1578.71 864.796C1579.21 864.796 1579.72 864.796 1580.23 864.796C1580.73 864.796 1581.24 864.796 1581.74 864.796C1582.25 864.796 1582.75 864.796 1583.26 864.796C1583.76 864.796 1584.26 864.796 1584.76 864.796C1585.27 864.796 1585.77 864.796 1586.27 864.796C1586.77 864.796 1587.27 864.796 1587.77 864.796C1588.27 864.796 1588.77 864.796 1589.27 864.796C1589.76 864.796 1590.26 864.796 1590.76 864.796C1591.26 864.796 1591.75 864.796 1592.25 864.796C1592.74 864.796 1593.24 864.796 1593.73 864.796C1594.23 864.796 1594.72 864.796 1595.21 864.796C1595.71 864.796 1596.2 864.796 1596.69 864.796C1597.18 864.796 1597.67 864.796 1598.16 864.796C1598.65 864.796 1599.14 864.796 1599.63 864.796C1600.12 864.796 1600.61 864.796 1601.1 864.796C1601.58 864.796 1602.07 864.796 1602.56 864.796C1603.04 864.796 1603.53 864.796 1604.01 864.796C1604.5 864.796 1604.98 864.796 1605.47 864.796C1605.95 864.796 1606.43 864.796 1606.91 864.796C1607.4 864.796 1607.88 864.796 1608.36 864.796C1608.84 864.796 1609.32 864.796 1609.8 864.796C1610.28 864.796 1610.76 864.796 1611.24 864.796C1611.72 864.796 1612.19 864.796 1612.67 864.796C1613.15 864.796 1613.62 864.796 1614.1 864.796C1614.58 864.796 1615.05 864.796 1615.52 864.796C1616 864.796 1616.47 864.796 1616.95 864.796C1617.42 864.796 1617.89 864.796 1618.36 864.796C1618.83 864.796 1619.31 864.796 1619.78 864.796C1620.25 864.796 1620.72 864.796 1621.19 864.796C1621.66 864.796 1622.12 864.796 1622.59 864.796C1623.06 864.796 1623.53 864.796 1623.99 864.796C1624.46 864.796 1624.93 864.796 1625.39 864.796C1625.86 864.796 1626.32 864.796 1626.78 864.796C1627.25 864.796 1627.71 864.796 1628.17 864.796C1628.64 864.796 1629.1 864.796 1629.56 864.796C1630.02 864.796 1630.48 864.796 1630.94 864.796C1631.4 864.796 1631.86 864.796 1632.32 864.796C1632.78 864.796 1633.24 864.796 1633.69 864.796C1634.15 864.796 1634.61 864.796 1635.06 864.796C1635.52 864.796 1635.98 864.796 1636.43 864.796C1636.89 864.796 1637.34 864.796 1637.79 864.796C1638.25 864.796 1638.7 864.796 1639.15 864.796C1639.6 864.796 1640.06 864.796 1640.51 864.796C1640.96 864.796 1641.41 864.796 1641.86 864.796C1642.31 864.796 1642.76 864.796 1643.2 864.796C1643.65 864.796 1644.1 864.796 1644.55 864.796C1644.99 864.796 1645.44 864.796 1645.89 864.796C1646.33 864.796 1646.78 864.796 1647.22 864.796C1647.67 864.796 1648.11 864.796 1648.55 864.796C1649 864.796 1649.44 864.796 1649.88 864.796C1650.32 864.796 1650.76 864.796 1651.2 864.796C1651.65 864.796 1652.08 864.796 1652.52 864.796C1652.96 864.796 1653.4 864.796 1653.84 864.796C1654.28 864.796 1654.72 864.796 1655.15 864.796C1655.59 864.796 1656.02 864.796 1656.46 864.796C1656.9 864.796 1657.33 864.796 1657.76 864.796C1658.2 864.796 1658.63 864.796 1659.07 864.796C1659.5 864.796 1659.93 864.796 1660.36 864.796C1660.79 864.796 1661.22 864.796 1661.65 864.796C1662.08 864.796 1662.51 864.796 1662.94 864.796C1663.37 864.796 1663.8 864.796 1664.23 864.796C1664.66 864.796 1665.08 864.796 1665.51 864.796C1665.94 864.796 1666.36 864.796 1666.79 864.796C1667.21 864.796 1667.64 864.796 1668.06 864.796C1668.48 864.796 1668.91 864.796 1669.33 864.796C1669.75 864.796 1670.18 864.796 1670.6 864.796C1671.02 864.796 1671.44 864.796 1671.86 864.796C1672.28 864.796 1672.7 864.796 1673.12 864.796C1673.54 864.796 1673.95 864.796 1674.37 864.796C1674.79 864.796 1675.21 864.796 1675.62 864.796C1676.04 864.796 1676.45 864.796 1676.87 864.796C1677.28 864.796 1677.7 864.796 1678.11 864.796C1678.53 864.796 1678.94 864.796 1679.35 864.796C1679.76 864.796 1680.17 864.796 1680.59 864.796C1681 864.796 1681.41 864.796 1681.82 864.796C1682.23 864.796 1682.64 864.796 1683.05 864.796C1683.45 864.796 1683.86 864.796 1684.27 864.796C1684.68 864.796 1685.08 864.796 1685.49 864.796C1685.9 864.796 1686.3 864.796 1686.71 864.796C1687.11 864.796 1687.51 864.796 1687.92 864.796C1688.32 864.796 1688.72 864.796 1689.13 864.796C1689.53 864.796 1689.93 864.796 1690.33 864.796C1690.73 864.796 1691.13 864.796 1691.53 864.796C1691.93 864.796 1692.33 864.796 1692.73 864.796C1693.13 864.796 1693.53 864.796 1693.92 864.796C1694.32 864.796 1694.72 864.796 1695.11 864.796C1695.51 864.796 1695.91 864.796 1696.3 864.796C1696.69 864.796 1697.09 864.796 1697.48 864.796C1697.88 864.796 1698.27 864.796 1698.66 864.796C1699.05 864.796 1699.44 864.796 1699.84 864.796C1700.23 864.796 1700.62 864.796 1701.01 864.796C1701.4 864.796 1701.79 864.796 1702.17 864.796C1702.56 864.796 1702.95 864.796 1703.34 864.796C1703.72 864.796 1704.11 864.796 1704.5 864.796C1704.88 864.796 1705.27 864.796 1705.65 864.796C1706.04 864.796 1706.42 864.796 1706.81 864.796C1707.19 864.796 1707.57 864.796 1707.95 864.796C1708.34 864.796 1708.72 864.796 1709.1 864.796C1709.48 864.796 1709.86 864.796 1710.24 864.796C1710.62 864.796 1711 864.796 1711.38 864.796C1711.76 864.796 1712.13 864.796 1712.51 864.796C1712.89 864.796 1713.26 864.796 1713.64 864.796C1714.02 864.796 1714.39 864.796 1714.77 864.796C1715.14 864.796 1715.51 864.796 1715.89 864.796C1716.26 864.796 1716.63 864.796 1717.01 864.796C1717.38 864.796 1717.75 864.796 1718.12 864.796C1718.49 864.796 1718.86 864.796 1719.23 864.796C1719.6 864.796 1719.97 864.796 1720.34 864.796C1720.71 864.796 1721.08 864.796 1721.44 864.796C1721.81 864.796 1722.18 864.796 1722.54 864.796C1722.91 864.796 1723.28 864.796 1723.64 864.796C1724 864.796 1724.37 864.796 1724.73 864.796C1725.1 864.796 1725.46 864.796 1725.82 864.796C1726.18 864.796 1726.55 864.796 1726.91 864.796C1727.27 864.796 1727.63 864.796 1727.99 864.796C1728.35 864.796 1728.71 864.796 1729.07 864.796C1729.42 864.796 1729.78 864.796 1730.14 864.796C1730.5 864.796 1730.85 864.796 1731.21 864.796C1731.57 864.796 1731.92 864.796 1732.28 864.796C1732.63 864.796 1732.99 864.796 1733.34 864.796C1733.69 864.796 1734.05 864.796 1734.4 864.796C1734.75 864.796 1735.1 864.796 1735.46 864.796C1735.81 864.796 1736.16 864.796 1736.51 864.796C1736.86 864.796 1737.21 864.796 1737.56 864.796C1737.9 864.796 1738.25 864.796 1738.6 864.796C1738.95 864.796 1739.29 864.796 1739.64 864.796C1739.99 864.796 1740.33 864.796 1740.68 864.796C1741.02 864.796 1741.37 864.796 1741.71 864.796C1742.06 864.796 1742.4 864.796 1742.74 864.796C1743.08 864.796 1743.43 864.796 1743.77 864.796C1744.11 864.796 1744.45 864.796 1744.79 864.796C1745.13 864.796 1745.47 864.796 1745.81 864.796C1746.15 864.796 1746.49 864.796 1746.82 864.796C1747.16 864.796 1747.5 864.796 1747.84 864.796C1748.17 864.796 1748.51 864.796 1748.84 864.796C1749.18 864.796 1749.51 864.796 1749.85 864.796C1750.18 864.796 1750.52 864.796 1750.85 864.796C1751.18 864.796 1751.52 864.796 1751.85 864.796C1752.18 864.796 1752.51 864.796 1752.84 864.796C1753.17 864.796 1753.5 864.796 1753.83 864.796C1754.16 864.796 1754.49 864.796 1754.82 864.796C1755.14 864.796 1755.47 864.796 1755.8 864.796C1756.13 864.796 1756.45 864.796 1756.78 864.796C1757.1 864.796 1757.43 864.796 1757.75 864.796C1758.08 864.796 1758.4 864.796 1758.72 864.796C1759.05 864.796 1759.37 864.796 1759.69 864.796C1760.02 864.796 1760.34 864.796 1760.66 864.796C1760.98 864.796 1761.3 864.796 1761.62 864.796C1761.94 864.796 1762.26 864.796 1762.58 864.796C1762.89 864.796 1763.21 864.796 1763.53 864.796C1763.85 864.796 1764.16 864.796 1764.48 864.796C1764.8 864.796 1765.11 864.796 1765.43 864.796C1765.74 864.796 1766.06 864.796 1766.37 864.796C1766.68 864.796 1767 864.796 1767.31 864.796C1767.62 864.796 1767.93 864.796 1768.24 864.796C1768.55 864.796 1768.87 864.796 1769.18 864.796C1769.49 864.796 1769.8 864.796 1770.1 864.796C1770.41 864.796 1770.72 864.796 1771.03 864.796C1771.34 864.796 1771.64 864.796 1771.95 864.796C1772.26 864.796 1772.56 864.796 1772.87 864.796C1773.17 864.796 1773.48 864.796 1773.78 864.796C1774.09 864.796 1774.39 864.796 1774.69 864.796C1775 864.796 1775.3 864.796 1775.6 864.796C1775.9 864.796 1776.2 864.796 1776.5 864.796C1776.8 864.796 1777.1 864.796 1777.4 864.796C1777.7 864.796 1778 864.796 1778.3 864.796C1778.6 864.796 1778.9 864.796 1779.19 864.796C1779.49 864.796 1779.79 864.796 1780.08 864.796C1780.38 864.796 1780.67 864.796 1780.97 864.796C1781.26 864.796 1781.56 864.796 1781.85 864.796C1782.14 864.796 1782.44 864.796 1782.73 864.796C1783.02 864.796 1783.31 864.796 1783.6 864.796C1783.89 864.796 1784.18 864.796 1784.47 864.796C1784.76 864.796 1785.05 864.796 1785.34 864.796C1785.63 864.796 1785.92 864.796 1786.21 864.796C1786.49 864.796 1786.78 864.796 1787.07 864.796C1787.35 864.796 1787.64 864.796 1787.92 864.796C1788.21 864.796 1788.49 864.796 1788.78 864.796C1789.06 864.796 1789.35 864.796 1789.63 864.796C1789.91 864.796 1790.19 864.796 1790.48 864.796C1790.76 864.796 1791.04 864.796 1791.32 864.796C1791.6 864.796 1791.88 864.796 1792.16 864.796C1792.44 864.796 1792.72 864.796 1792.99 864.796C1793.27 864.796 1793.55 864.796 1793.83 864.796C1794.1 864.796 1794.38 864.796 1794.66 864.796C1794.93 864.796 1795.21 864.796 1795.48 864.796C1795.76 864.796 1796.03 864.796 1796.3 864.796C1796.58 864.796 1796.85 864.796 1797.12 864.796C1797.4 864.796 1797.67 864.796 1797.94 864.796C1798.21 864.796 1798.48 864.796 1798.75 864.796C1799.02 864.796 1799.29 864.796 1799.56 864.796C1799.83 864.796 1800.09 864.796 1800.36 864.796C1800.63 864.796 1800.9 864.796 1801.16 864.796C1801.43 864.796 1801.7 864.796 1801.96 864.796C1802.23 864.796 1802.49 864.796 1802.76 864.796C1803.02 864.796 1803.28 864.796 1803.55 864.796C1803.81 864.796 1804.07 864.796 1804.33 864.796C1804.6 864.796 1804.86 864.796 1805.12 864.796C1805.38 864.796 1805.64 864.796 1805.9 864.796C1806.16 864.796 1806.42 864.796 1806.67 864.796C1806.93 864.796 1807.19 864.796 1807.45 864.796C1807.7 864.796 1807.96 864.796 1808.22 864.796C1808.47 864.796 1808.73 864.796 1808.98 864.796C1809.24 864.796 1809.49 864.796 1809.75 864.796C1810 864.796 1810.25 864.796 1810.51 864.796C1810.76 864.796 1811.01 864.796 1811.26 864.796C1811.51 864.796 1811.76 864.796 1812.01 864.796C1812.27 864.796 1812.51 864.796 1812.76 864.796C1813.01 864.796 1813.26 864.796 1813.51 864.796C1813.76 864.796 1814 864.796 1814.25 864.796C1814.5 864.796 1814.74 864.796 1814.99 864.796C1815.24 864.796 1815.48 864.796 1815.73 864.796C1815.97 864.796 1816.21 864.796 1816.46 864.796C1816.7 864.796 1816.94 864.796 1817.19 864.796C1817.43 864.796 1817.67 864.796 1817.91 864.796C1818.15 864.796 1818.39 864.796 1818.63 864.796C1818.87 864.796 1819.11 864.796 1819.35 864.796C1819.59 864.796 1819.83 864.796 1820.07 864.796C1820.3 864.796 1820.54 864.796 1820.78 864.796C1821.01 864.796 1821.25 864.796 1821.49 864.796C1821.72 864.796 1821.96 864.796 1822.19 864.796C1822.42 864.796 1822.66 864.796 1822.89 864.796C1823.12 864.796 1823.36 864.796 1823.59 864.796C1823.82 864.796 1824.05 864.796 1824.28 864.796C1824.51 864.796 1824.74 864.796 1824.97 864.796C1825.2 864.796 1825.43 864.796 1825.66 864.796C1825.89 864.796 1826.12 864.796 1826.34 864.796C1826.57 864.796 1826.8 864.796 1827.03 864.796C1827.25 864.796 1827.48 864.796 1827.7 864.796C1827.93 864.796 1828.15 864.796 1828.38 864.796C1828.6 864.796 1828.82 864.796 1829.05 864.796C1829.27 864.796 1829.49 864.796 1829.71 864.796C1829.94 864.796 1830.16 864.796 1830.38 864.796C1830.6 864.796 1830.82 864.796 1831.04 864.796C1831.26 864.796 1831.48 864.796 1831.7 864.796C1831.91 864.796 1832.13 864.796 1832.35 864.796C1832.57 864.796 1832.78 864.796 1833 864.796C1833.22 864.796 1833.43 864.796 1833.65 864.796C1833.86 864.796 1834.08 864.796 1834.29 864.796C1834.5 864.796 1834.72 864.796 1834.93 864.796C1835.14 864.796 1835.35 864.796 1835.57 864.796C1835.78 864.796 1835.99 864.796 1836.2 864.796C1836.41 864.796 1836.62 864.796 1836.83 864.796C1837.04 864.796 1837.25 864.796 1837.46 864.796C1837.66 864.796 1837.87 864.796 1838.08 864.796C1838.29 864.796 1838.49 864.796 1838.7 864.796C1838.91 864.796 1839.11 864.796 1839.32 864.796C1839.52 864.796 1839.73 864.796 1839.93 864.796C1840.13 864.796 1840.34 864.796 1840.54 864.796C1840.74 864.796 1840.94 864.796 1841.15 864.796C1841.35 864.796 1841.55 864.796 1841.75 864.796C1841.95 864.796 1842.15 864.796 1842.35 864.796C1842.55 864.796 1842.75 864.796 1842.95 864.796C1843.14 864.796 1843.34 864.796 1843.54 864.796C1843.74 864.796 1843.93 864.796 1844.13 864.796C1844.33 864.796 1844.52 864.796 1844.72 864.796C1844.91 864.796 1845.11 864.796 1845.3 864.796C1845.49 864.796 1845.69 864.796 1845.88 864.796C1846.07 864.796 1846.26 864.796 1846.46 864.796C1846.65 864.796 1846.84 864.796 1847.03 864.796C1847.22 864.796 1847.41 864.796 1847.6 864.796C1847.79 864.796 1847.98 864.796 1848.17 864.796C1848.35 864.796 1848.54 864.796 1848.73 864.796C1848.92 864.796 1849.1 864.796 1849.29 864.796C1849.48 864.796 1849.66 864.796 1849.85 864.796C1850.03 864.796 1850.22 864.796 1850.4 864.796C1850.58 864.796 1850.77 864.796 1850.95 864.796C1851.13 864.796 1851.32 864.796 1851.5 864.796C1851.68 864.796 1851.86 864.796 1852.04 864.796C1852.22 864.796 1852.4 864.796 1852.58 864.796C1852.76 864.796 1852.94 864.796 1853.12 864.796C1853.3 864.796 1853.48 864.796 1853.65 864.796C1853.83 864.796 1854.01 864.796 1854.18 864.796C1854.36 864.796 1854.54 864.796 1854.71 864.796C1854.89 864.796 1855.06 864.796 1855.24 864.796C1855.41 864.796 1855.58 864.796 1855.76 864.796C1855.93 864.796 1856.1 864.796 1856.27 864.796C1856.45 864.796 1856.62 864.796 1856.79 864.796C1856.96 864.796 1857.13 864.796 1857.3 864.796C1857.47 864.796 1857.64 864.796 1857.81 864.796C1857.98 864.796 1858.14 864.796 1858.31 864.796C1858.48 864.796 1858.65 864.796 1858.81 864.796C1858.98 864.796 1859.14 864.796 1859.31 864.796C1859.48 864.796 1859.64 864.796 1859.8 864.796C1859.97 864.796 1860.13 864.796 1860.3 864.796C1860.46 864.796 1860.62 864.796 1860.78 864.796C1860.95 864.796 1861.11 864.796 1861.27 864.796C1861.43 864.796 1861.59 864.796 1861.75 864.796C1861.91 864.796 1862.07 864.796 1862.23 864.796C1862.39 864.796 1862.55 864.796 1862.71 864.796C1862.86 864.796 1863.02 864.796 1863.18 864.796C1863.33 864.796 1863.49 864.796 1863.65 864.796C1863.8 864.796 1863.96 864.796 1864.11 864.796C1864.27 864.796 1864.42 864.796 1864.57 864.796C1864.73 864.796 1864.88 864.796 1865.03 864.796C1865.19 864.796 1865.34 864.796 1865.49 864.796C1865.64 864.796 1865.79 864.796 1865.94 864.796C1866.09 864.796 1866.24 864.796 1866.39 864.796C1866.54 864.796 1866.69 864.796 1866.84 864.796C1866.99 864.796 1867.13 864.796 1867.28 864.796C1867.43 864.796 1867.58 864.796 1867.72 864.796C1867.87 864.796 1868.01 864.796 1868.16 864.796C1868.3 864.796 1868.45 864.796 1868.59 864.796C1868.74 864.796 1868.88 864.796 1869.02 864.796C1869.16 864.796 1869.31 864.796 1869.45 864.796C1869.59 864.796 1869.73 864.796 1869.87 864.796C1870.01 864.796 1870.15 864.796 1870.29 864.796C1870.43 864.796 1870.57 864.796 1870.71 864.796C1870.85 864.796 1870.99 864.796 1871.13 864.796C1871.26 864.796 1871.4 864.796 1871.54 864.796C1871.67 864.796 1871.81 864.796 1871.95 864.796C1872.08 864.796 1872.22 864.796 1872.35 864.796C1872.48 864.796 1872.62 864.796 1872.75 864.796C1872.89 864.796 1873.02 864.796 1873.15 864.796C1873.28 864.796 1873.41 864.796 1873.55 864.796C1873.68 864.796 1873.81 864.796 1873.94 864.796C1874.07 864.796 1874.2 864.796 1874.33 864.796C1874.46 864.796 1874.59 864.796 1874.71 864.796C1874.84 864.796 1874.97 864.796 1875.1 864.796C1875.22 864.796 1875.35 864.796 1875.48 864.796C1875.6 864.796 1875.73 864.796 1875.85 864.796C1875.98 864.796 1876.1 864.796 1876.23 864.796C1876.35 864.796 1876.47 864.796 1876.6 864.796C1876.72 864.796 1876.84 864.796 1876.96 864.796C1877.08 864.796 1877.21 864.796 1877.33 864.796C1877.45 864.796 1877.57 864.796 1877.69 864.796C1877.81 864.796 1877.93 864.796 1878.05 864.796C1878.16 864.796 1878.28 864.796 1878.4 864.796C1878.52 864.796 1878.63 864.796 1878.75 864.796C1878.87 864.796 1878.98 864.796 1879.1 864.796C1879.22 864.796 1879.33 864.796 1879.44 864.796C1879.56 864.796 1879.67 864.796 1879.79 864.796C1879.9 864.796 1880.01 864.796 1880.13 864.796C1880.24 864.796 1880.35 864.796 1880.46 864.796C1880.57 864.796 1880.68 864.796 1880.79 864.796C1880.9 864.796 1881.01 864.796 1881.12 864.796C1881.23 864.796 1881.34 864.796 1881.45 864.796C1881.56 864.796 1881.67 864.796 1881.77 864.796C1881.88 864.796 1881.99 864.796 1882.09 864.796C1882.2 864.796 1882.31 864.796 1882.41 864.796C1882.52 864.796 1882.62 864.796 1882.73 864.796C1882.83 864.796 1882.93 864.796 1883.04 864.796C1883.14 864.796 1883.24 864.796 1883.34 864.796C1883.45 864.796 1883.55 864.796 1883.65 864.796C1883.75 864.796 1883.85 864.796 1883.95 864.796C1884.05 864.796 1884.15 864.796 1884.25 864.796C1884.35 864.796 1884.45 864.796 1884.55 864.796C1884.64 864.796 1884.74 864.796 1884.84 864.796C1884.93 864.796 1885.03 864.796 1885.13 864.796C1885.22 864.796 1885.32 864.796 1885.41 864.796C1885.51 864.796 1885.6 864.796 1885.7 864.796C1885.79 864.796 1885.88 864.796 1885.98 864.796C1886.07 864.796 1886.16 864.796 1886.25 864.796C1886.35 864.796 1886.44 864.796 1886.53 864.796C1886.62 864.796 1886.71 864.796 1886.8 864.796C1886.89 864.796 1886.98 864.796 1887.07 864.796C1887.16 864.796 1887.24 864.796 1887.33 864.796C1887.42 864.796 1887.51 864.796 1887.59 864.796C1887.68 864.796 1887.77 864.796 1887.85 864.796C1887.94 864.796 1888.02 864.796 1888.11 864.796C1888.19 864.796 1888.28 864.796 1888.36 864.796C1888.45 864.796 1888.53 864.796 1888.61 864.796C1888.69 864.796 1888.78 864.796 1888.86 864.796C1888.94 864.796 1889.02 864.796 1889.1 864.796C1889.18 864.796 1889.26 864.796 1889.34 864.796C1889.42 864.796 1889.5 864.796 1889.58 864.796C1889.66 864.796 1889.74 864.796 1889.82 864.796C1889.89 864.796 1889.97 864.796 1890.05 864.796C1890.12 864.796 1890.2 864.796 1890.28 864.796C1890.35 864.796 1890.43 864.796 1890.5 864.796C1890.58 864.796 1890.65 864.796 1890.72 864.796C1890.8 864.796 1890.87 864.796 1890.94 864.796C1891.02 864.796 1891.09 864.796 1891.16 864.796C1891.23 864.796 1891.3 864.796 1891.37 864.796C1891.44 864.796 1891.51 864.796 1891.58 864.796C1891.65 864.796 1891.72 864.796 1891.79 864.796C1891.86 864.796 1891.93 864.796 1892 864.796C1892.06 864.796 1892.13 864.796 1892.2 864.796C1892.26 864.796 1892.33 864.796 1892.4 864.796C1892.46 864.796 1892.53 864.796 1892.59 864.796C1892.66 864.796 1892.72 864.796 1892.78 864.796C1892.85 864.796 1892.91 864.796 1892.97 864.796C1893.04 864.796 1893.1 864.796 1893.16 864.796C1893.22 864.796 1893.28 864.796 1893.34 864.796C1893.4 864.796 1893.47 864.796 1893.52 864.796C1893.58 864.796 1893.64 864.796 1893.7 864.796C1893.76 864.796 1893.82 864.796 1893.88 864.796C1893.93 864.796 1893.99 864.796 1894.05 864.796C1894.11 864.796 1894.16 864.796 1894.22 864.796C1894.27 864.796 1894.33 864.796 1894.38 864.796C1894.44 864.796 1894.49 864.796 1894.55 864.796C1894.6 864.796 1894.65 864.796 1894.71 864.796C1894.76 864.796 1894.81 864.796 1894.86 864.796C1894.92 864.796 1894.97 864.796 1895.02 864.796C1895.07 864.796 1895.12 864.796 1895.17 864.796C1895.22 864.796 1895.27 864.796 1895.32 864.796C1895.37 864.796 1895.41 864.796 1895.46 864.796C1895.51 864.796 1895.56 864.796 1895.6 864.796C1895.65 864.796 1895.7 864.796 1895.74 864.796C1895.79 864.796 1895.83 864.796 1895.88 864.796C1895.92 864.796 1895.97 864.796 1896.01 864.796C1896.06 864.796 1896.1 864.796 1896.14 864.796C1896.19 864.796 1896.23 864.796 1896.27 864.796C1896.31 864.796 1896.35 864.796 1896.4 864.796C1896.44 864.796 1896.48 864.796 1896.52 864.796C1896.56 864.796 1896.6 864.796 1896.64 864.796C1896.67 864.796 1896.71 864.796 1896.75 864.796C1896.79 864.796 1896.83 864.796 1896.86 864.796C1896.9 864.796 1896.94 864.796 1896.97 864.796C1897.01 864.796 1897.05 864.796 1897.08 864.796C1897.12 864.796 1897.15 864.796 1897.19 864.796C1897.22 864.796 1897.25 864.796 1897.29 864.796C1897.32 864.796 1897.35 864.796 1897.39 864.796C1897.42 864.796 1897.45 864.796 1897.48 864.796C1897.51 864.796 1897.54 864.796 1897.57 864.796C1897.6 864.796 1897.63 864.796 1897.66 864.796C1897.69 864.796 1897.72 864.796 1897.75 864.796C1897.78 864.796 1897.81 864.796 1897.83 864.796C1897.86 864.796 1897.89 864.796 1897.92 864.796C1897.94 864.796 1897.97 864.796 1897.99 864.796C1898.02 864.796 1898.04 864.796 1898.07 864.796C1898.09 864.796 1898.12 864.796 1898.14 864.796C1898.17 864.796 1898.19 864.796 1898.21 864.796C1898.23 864.796 1898.26 864.796 1898.28 864.796C1898.3 864.796 1898.32 864.796 1898.34 864.796C1898.36 864.796 1898.38 864.796 1898.4 864.796C1898.42 864.796 1898.44 864.796 1898.46 864.796C1898.48 864.796 1898.5 864.796 1898.52 864.796C1898.53 864.796 1898.55 864.796 1898.57 864.796C1898.59 864.796 1898.6 864.796 1898.62 864.796C1898.63 864.796 1898.65 864.796 1898.66 864.796C1898.68 864.796 1898.69 864.796 1898.71 864.796C1898.72 864.796 1898.74 864.796 1898.75 864.796C1898.76 864.796 1898.78 864.796 1898.79 864.796C1898.8 864.796 1898.81 864.796 1898.82 864.796C1898.83 864.796 1898.84 864.796 1898.86 864.796C1898.87 864.796 1898.88 864.796 1898.88 864.796C1898.89 864.796 1898.9 864.796 1898.91 864.796C1898.92 864.796 1898.93 864.796 1898.94 864.796C1898.94 864.796 1898.95 864.796 1898.96 864.796C1898.96 864.796 1898.97 864.796 1898.98 864.796C1898.98 864.796 1898.99 864.796 1898.99 864.796C1899 864.796 1899 864.796 1899 864.796C1899.01 864.796 1899.01 864.796 1899.01 864.796C1899.02 864.796 1899.02 864.796 1899.02 864.796C1899.02 864.796 1899.02 864.796 1899.02 864.796C1899.03 864.796 1899.03 864.796 1899.03 822.796C1899.03 780.796 1899.03 780.796 1899.02 780.796C1899.02 780.796 1899.02 780.796 1899.02 780.796C1899.02 780.796 1899.02 780.796 1899.01 780.796C1899.01 780.796 1899.01 780.796 1899 780.796C1899 780.796 1899 780.796 1898.99 780.796C1898.99 780.796 1898.98 780.796 1898.98 780.796C1898.97 780.796 1898.96 780.796 1898.96 780.796C1898.95 780.796 1898.94 780.796 1898.94 780.796C1898.93 780.796 1898.92 780.796 1898.91 780.796C1898.9 780.796 1898.89 780.796 1898.88 780.796C1898.88 780.796 1898.87 780.796 1898.86 780.796C1898.84 780.796 1898.83 780.796 1898.82 780.796C1898.81 780.796 1898.8 780.796 1898.79 780.796C1898.78 780.796 1898.76 780.796 1898.75 780.796C1898.74 780.796 1898.72 780.796 1898.71 780.796C1898.69 780.796 1898.68 780.796 1898.66 780.796C1898.65 780.796 1898.63 780.796 1898.62 780.796C1898.6 780.796 1898.59 780.796 1898.57 780.796C1898.55 780.796 1898.53 780.796 1898.52 780.796C1898.5 780.796 1898.48 780.796 1898.46 780.796C1898.44 780.796 1898.42 780.796 1898.4 780.796C1898.38 780.796 1898.36 780.796 1898.34 780.796C1898.32 780.796 1898.3 780.796 1898.28 780.796C1898.26 780.796 1898.23 780.796 1898.21 780.796C1898.19 780.796 1898.17 780.796 1898.14 780.796C1898.12 780.796 1898.09 780.796 1898.07 780.796C1898.04 780.796 1898.02 780.796 1897.99 780.796C1897.97 780.796 1897.94 780.796 1897.92 780.796C1897.89 780.796 1897.86 780.796 1897.83 780.796C1897.81 780.796 1897.78 780.796 1897.75 780.796C1897.72 780.796 1897.69 780.796 1897.66 780.796C1897.63 780.796 1897.6 780.796 1897.57 780.796C1897.54 780.796 1897.51 780.796 1897.48 780.796C1897.45 780.796 1897.42 780.796 1897.39 780.796C1897.35 780.796 1897.32 780.796 1897.29 780.796C1897.25 780.796 1897.22 780.796 1897.19 780.796C1897.15 780.796 1897.12 780.796 1897.08 780.796C1897.05 780.796 1897.01 780.796 1896.97 780.796C1896.94 780.796 1896.9 780.796 1896.86 780.796C1896.83 780.796 1896.79 780.796 1896.75 780.796C1896.71 780.796 1896.67 780.796 1896.64 780.796C1896.6 780.796 1896.56 780.796 1896.52 780.796C1896.48 780.796 1896.44 780.796 1896.4 780.796C1896.35 780.796 1896.31 780.796 1896.27 780.796C1896.23 780.796 1896.19 780.796 1896.14 780.796C1896.1 780.796 1896.06 780.796 1896.01 780.796C1895.97 780.796 1895.92 780.796 1895.88 780.796C1895.83 780.796 1895.79 780.796 1895.74 780.796C1895.7 780.796 1895.65 780.796 1895.6 780.796C1895.56 780.796 1895.51 780.796 1895.46 780.796C1895.41 780.796 1895.37 780.796 1895.32 780.796C1895.27 780.796 1895.22 780.796 1895.17 780.796C1895.12 780.796 1895.07 780.796 1895.02 780.796C1894.97 780.796 1894.92 780.796 1894.86 780.796C1894.81 780.796 1894.76 780.796 1894.71 780.796C1894.65 780.796 1894.6 780.796 1894.55 780.796C1894.49 780.796 1894.44 780.796 1894.38 780.796C1894.33 780.796 1894.27 780.796 1894.22 780.796C1894.16 780.796 1894.11 780.796 1894.05 780.796C1893.99 780.796 1893.93 780.796 1893.88 780.796C1893.82 780.796 1893.76 780.796 1893.7 780.796C1893.64 780.796 1893.58 780.796 1893.52 780.796C1893.47 780.796 1893.4 780.796 1893.34 780.796C1893.28 780.796 1893.22 780.796 1893.16 780.796C1893.1 780.796 1893.04 780.796 1892.97 780.796C1892.91 780.796 1892.85 780.796 1892.78 780.796C1892.72 780.796 1892.66 780.796 1892.59 780.796C1892.53 780.796 1892.46 780.796 1892.4 780.796C1892.33 780.796 1892.26 780.796 1892.2 780.796C1892.13 780.796 1892.06 780.796 1892 780.796C1891.93 780.796 1891.86 780.796 1891.79 780.796C1891.72 780.796 1891.65 780.796 1891.58 780.796C1891.51 780.796 1891.44 780.796 1891.37 780.796C1891.3 780.796 1891.23 780.796 1891.16 780.796C1891.09 780.796 1891.02 780.796 1890.94 780.796C1890.87 780.796 1890.8 780.796 1890.72 780.796C1890.65 780.796 1890.58 780.796 1890.5 780.796C1890.43 780.796 1890.35 780.796 1890.28 780.796C1890.2 780.796 1890.12 780.796 1890.05 780.796C1889.97 780.796 1889.89 780.796 1889.82 780.796C1889.74 780.796 1889.66 780.796 1889.58 780.796C1889.5 780.796 1889.42 780.796 1889.34 780.796C1889.26 780.796 1889.18 780.796 1889.1 780.796C1889.02 780.796 1888.94 780.796 1888.86 780.796C1888.78 780.796 1888.69 780.796 1888.61 780.796C1888.53 780.796 1888.45 780.796 1888.36 780.796C1888.28 780.796 1888.19 780.796 1888.11 780.796C1888.02 780.796 1887.94 780.796 1887.85 780.796C1887.77 780.796 1887.68 780.796 1887.59 780.796C1887.51 780.796 1887.42 780.796 1887.33 780.796C1887.24 780.796 1887.16 780.796 1887.07 780.796C1886.98 780.796 1886.89 780.796 1886.8 780.796C1886.71 780.796 1886.62 780.796 1886.53 780.796C1886.44 780.796 1886.35 780.796 1886.25 780.796C1886.16 780.796 1886.07 780.796 1885.98 780.796C1885.88 780.796 1885.79 780.796 1885.7 780.796C1885.6 780.796 1885.51 780.796 1885.41 780.796C1885.32 780.796 1885.22 780.796 1885.13 780.796C1885.03 780.796 1884.93 780.796 1884.84 780.796C1884.74 780.796 1884.64 780.796 1884.55 780.796C1884.45 780.796 1884.35 780.796 1884.25 780.796C1884.15 780.796 1884.05 780.796 1883.95 780.796C1883.85 780.796 1883.75 780.796 1883.65 780.796C1883.55 780.796 1883.45 780.796 1883.34 780.796C1883.24 780.796 1883.14 780.796 1883.04 780.796C1882.93 780.796 1882.83 780.796 1882.73 780.796C1882.62 780.796 1882.52 780.796 1882.41 780.796C1882.31 780.796 1882.2 780.796 1882.09 780.796C1881.99 780.796 1881.88 780.796 1881.77 780.796C1881.67 780.796 1881.56 780.796 1881.45 780.796C1881.34 780.796 1881.23 780.796 1881.12 780.796C1881.01 780.796 1880.9 780.796 1880.79 780.796C1880.68 780.796 1880.57 780.796 1880.46 780.796C1880.35 780.796 1880.24 780.796 1880.13 780.796C1880.01 780.796 1879.9 780.796 1879.79 780.796C1879.67 780.796 1879.56 780.796 1879.44 780.796C1879.33 780.796 1879.22 780.796 1879.1 780.796C1878.98 780.796 1878.87 780.796 1878.75 780.796C1878.63 780.796 1878.52 780.796 1878.4 780.796C1878.28 780.796 1878.16 780.796 1878.05 780.796C1877.93 780.796 1877.81 780.796 1877.69 780.796C1877.57 780.796 1877.45 780.796 1877.33 780.796C1877.21 780.796 1877.08 780.796 1876.96 780.796C1876.84 780.796 1876.72 780.796 1876.6 780.796C1876.47 780.796 1876.35 780.796 1876.23 780.796C1876.1 780.796 1875.98 780.796 1875.85 780.796C1875.73 780.796 1875.6 780.796 1875.48 780.796C1875.35 780.796 1875.22 780.796 1875.1 780.796C1874.97 780.796 1874.84 780.796 1874.71 780.796C1874.59 780.796 1874.46 780.796 1874.33 780.796C1874.2 780.796 1874.07 780.796 1873.94 780.796C1873.81 780.796 1873.68 780.796 1873.55 780.796C1873.41 780.796 1873.28 780.796 1873.15 780.796C1873.02 780.796 1872.89 780.796 1872.75 780.796C1872.62 780.796 1872.48 780.796 1872.35 780.796C1872.22 780.796 1872.08 780.796 1871.95 780.796C1871.81 780.796 1871.67 780.796 1871.54 780.796C1871.4 780.796 1871.26 780.796 1871.13 780.796C1870.99 780.796 1870.85 780.796 1870.71 780.796C1870.57 780.796 1870.43 780.796 1870.29 780.796C1870.15 780.796 1870.01 780.796 1869.87 780.796C1869.73 780.796 1869.59 780.796 1869.45 780.796C1869.31 780.796 1869.16 780.796 1869.02 780.796C1868.88 780.796 1868.74 780.796 1868.59 780.796C1868.45 780.796 1868.3 780.796 1868.16 780.796C1868.01 780.796 1867.87 780.796 1867.72 780.796C1867.58 780.796 1867.43 780.796 1867.28 780.796C1867.13 780.796 1866.99 780.796 1866.84 780.796C1866.69 780.796 1866.54 780.796 1866.39 780.796C1866.24 780.796 1866.09 780.796 1865.94 780.796C1865.79 780.796 1865.64 780.796 1865.49 780.796C1865.34 780.796 1865.19 780.796 1865.03 780.796C1864.88 780.796 1864.73 780.796 1864.57 780.796C1864.42 780.796 1864.27 780.796 1864.11 780.796C1863.96 780.796 1863.8 780.796 1863.65 780.796C1863.49 780.796 1863.33 780.796 1863.18 780.796C1863.02 780.796 1862.86 780.796 1862.71 780.796C1862.55 780.796 1862.39 780.796 1862.23 780.796C1862.07 780.796 1861.91 780.796 1861.75 780.796C1861.59 780.796 1861.43 780.796 1861.27 780.796C1861.11 780.796 1860.95 780.796 1860.78 780.796C1860.62 780.796 1860.46 780.796 1860.3 780.796C1860.13 780.796 1859.97 780.796 1859.8 780.796C1859.64 780.796 1859.48 780.796 1859.31 780.796C1859.14 780.796 1858.98 780.796 1858.81 780.796C1858.65 780.796 1858.48 780.796 1858.31 780.796C1858.14 780.796 1857.98 780.796 1857.81 780.796C1857.64 780.796 1857.47 780.796 1857.3 780.796C1857.13 780.796 1856.96 780.796 1856.79 780.796C1856.62 780.796 1856.45 780.796 1856.27 780.796C1856.1 780.796 1855.93 780.796 1855.76 780.796C1855.58 780.796 1855.41 780.796 1855.24 780.796C1855.06 780.796 1854.89 780.796 1854.71 780.796C1854.54 780.796 1854.36 780.796 1854.18 780.796C1854.01 780.796 1853.83 780.796 1853.65 780.796C1853.48 780.796 1853.3 780.796 1853.12 780.796C1852.94 780.796 1852.76 780.796 1852.58 780.796C1852.4 780.796 1852.22 780.796 1852.04 780.796C1851.86 780.796 1851.68 780.796 1851.5 780.796C1851.32 780.796 1851.13 780.796 1850.95 780.796C1850.77 780.796 1850.58 780.796 1850.4 780.796C1850.22 780.796 1850.03 780.796 1849.85 780.796C1849.66 780.796 1849.48 780.796 1849.29 780.796C1849.1 780.796 1848.92 780.796 1848.73 780.796C1848.54 780.796 1848.35 780.796 1848.17 780.796C1847.98 780.796 1847.79 780.796 1847.6 780.796C1847.41 780.796 1847.22 780.796 1847.03 780.796C1846.84 780.796 1846.65 780.796 1846.46 780.796C1846.26 780.796 1846.07 780.796 1845.88 780.796C1845.69 780.796 1845.49 780.796 1845.3 780.796C1845.11 780.796 1844.91 780.796 1844.72 780.796C1844.52 780.796 1844.33 780.796 1844.13 780.796C1843.93 780.796 1843.74 780.796 1843.54 780.796C1843.34 780.796 1843.14 780.796 1842.95 780.796C1842.75 780.796 1842.55 780.796 1842.35 780.796C1842.15 780.796 1841.95 780.796 1841.75 780.796C1841.55 780.796 1841.35 780.796 1841.15 780.796C1840.94 780.796 1840.74 780.796 1840.54 780.796C1840.34 780.796 1840.13 780.796 1839.93 780.796C1839.73 780.796 1839.52 780.796 1839.32 780.796C1839.11 780.796 1838.91 780.796 1838.7 780.796C1838.49 780.796 1838.29 780.796 1838.08 780.796C1837.87 780.796 1837.66 780.796 1837.46 780.796C1837.25 780.796 1837.04 780.796 1836.83 780.796C1836.62 780.796 1836.41 780.796 1836.2 780.796C1835.99 780.796 1835.78 780.796 1835.57 780.796C1835.35 780.796 1835.14 780.796 1834.93 780.796C1834.72 780.796 1834.5 780.796 1834.29 780.796C1834.08 780.796 1833.86 780.796 1833.65 780.796C1833.43 780.796 1833.22 780.796 1833 780.796C1832.78 780.796 1832.57 780.796 1832.35 780.796C1832.13 780.796 1831.91 780.796 1831.7 780.796C1831.48 780.796 1831.26 780.796 1831.04 780.796C1830.82 780.796 1830.6 780.796 1830.38 780.796C1830.16 780.796 1829.94 780.796 1829.71 780.796C1829.49 780.796 1829.27 780.796 1829.05 780.796C1828.82 780.796 1828.6 780.796 1828.38 780.796C1828.15 780.796 1827.93 780.796 1827.7 780.796C1827.48 780.796 1827.25 780.796 1827.03 780.796C1826.8 780.796 1826.57 780.796 1826.34 780.796C1826.12 780.796 1825.89 780.796 1825.66 780.796C1825.43 780.796 1825.2 780.796 1824.97 780.796C1824.74 780.796 1824.51 780.796 1824.28 780.796C1824.05 780.796 1823.82 780.796 1823.59 780.796C1823.36 780.796 1823.12 780.796 1822.89 780.796C1822.66 780.796 1822.42 780.796 1822.19 780.796C1821.96 780.796 1821.72 780.796 1821.49 780.796C1821.25 780.796 1821.01 780.796 1820.78 780.796C1820.54 780.796 1820.3 780.796 1820.07 780.796C1819.83 780.796 1819.59 780.796 1819.35 780.796C1819.11 780.796 1818.87 780.796 1818.63 780.796C1818.39 780.796 1818.15 780.796 1817.91 780.796C1817.67 780.796 1817.43 780.796 1817.19 780.796C1816.94 780.796 1816.7 780.796 1816.46 780.796C1816.21 780.796 1815.97 780.796 1815.73 780.796C1815.48 780.796 1815.24 780.796 1814.99 780.796C1814.74 780.796 1814.5 780.796 1814.25 780.796C1814 780.796 1813.76 780.796 1813.51 780.796C1813.26 780.796 1813.01 780.796 1812.76 780.796C1812.51 780.796 1812.27 780.796 1812.01 780.796C1811.76 780.796 1811.51 780.796 1811.26 780.796C1811.01 780.796 1810.76 780.796 1810.51 780.796C1810.25 780.796 1810 780.796 1809.75 780.796C1809.49 780.796 1809.24 780.796 1808.98 780.796C1808.73 780.796 1808.47 780.796 1808.22 780.796C1807.96 780.796 1807.7 780.796 1807.45 780.796C1807.19 780.796 1806.93 780.796 1806.67 780.796C1806.42 780.796 1806.16 780.796 1805.9 780.796C1805.64 780.796 1805.38 780.796 1805.12 780.796C1804.86 780.796 1804.6 780.796 1804.33 780.796C1804.07 780.796 1803.81 780.796 1803.55 780.796C1803.28 780.796 1803.02 780.796 1802.76 780.796C1802.49 780.796 1802.23 780.796 1801.96 780.796C1801.7 780.796 1801.43 780.796 1801.16 780.796C1800.9 780.796 1800.63 780.796 1800.36 780.796C1800.09 780.796 1799.83 780.796 1799.56 780.796C1799.29 780.796 1799.02 780.796 1798.75 780.796C1798.48 780.796 1798.21 780.796 1797.94 780.796C1797.67 780.796 1797.4 780.796 1797.12 780.796C1796.85 780.796 1796.58 780.796 1796.3 780.796C1796.03 780.796 1795.76 780.796 1795.48 780.796C1795.21 780.796 1794.93 780.796 1794.66 780.796C1794.38 780.796 1794.1 780.796 1793.83 780.796C1793.55 780.796 1793.27 780.796 1792.99 780.796C1792.72 780.796 1792.44 780.796 1792.16 780.796C1791.88 780.796 1791.6 780.796 1791.32 780.796C1791.04 780.796 1790.76 780.796 1790.48 780.796C1790.19 780.796 1789.91 780.796 1789.63 780.796C1789.35 780.796 1789.06 780.796 1788.78 780.796C1788.49 780.796 1788.21 780.796 1787.92 780.796C1787.64 780.796 1787.35 780.796 1787.07 780.796C1786.78 780.796 1786.49 780.796 1786.21 780.796C1785.92 780.796 1785.63 780.796 1785.34 780.796C1785.05 780.796 1784.76 780.796 1784.47 780.796C1784.18 780.796 1783.89 780.796 1783.6 780.796C1783.31 780.796 1783.02 780.796 1782.73 780.796C1782.44 780.796 1782.14 780.796 1781.85 780.796C1781.56 780.796 1781.26 780.796 1780.97 780.796C1780.67 780.796 1780.38 780.796 1780.08 780.796C1779.79 780.796 1779.49 780.796 1779.19 780.796C1778.9 780.796 1778.6 780.796 1778.3 780.796C1778 780.796 1777.7 780.796 1777.4 780.796C1777.1 780.796 1776.8 780.796 1776.5 780.796C1776.2 780.796 1775.9 780.796 1775.6 780.796C1775.3 780.796 1775 780.796 1774.69 780.796C1774.39 780.796 1774.09 780.796 1773.78 780.796C1773.48 780.796 1773.17 780.796 1772.87 780.796C1772.56 780.796 1772.26 780.796 1771.95 780.796C1771.64 780.796 1771.34 780.796 1771.03 780.796C1770.72 780.796 1770.41 780.796 1770.1 780.796C1769.8 780.796 1769.49 780.796 1769.18 780.796C1768.87 780.796 1768.55 780.796 1768.24 780.796C1767.93 780.796 1767.62 780.796 1767.31 780.796C1767 780.796 1766.68 780.796 1766.37 780.796C1766.06 780.796 1765.74 780.796 1765.43 780.796C1765.11 780.796 1764.8 780.796 1764.48 780.796C1764.16 780.796 1763.85 780.796 1763.53 780.796C1763.21 780.796 1762.89 780.796 1762.58 780.796C1762.26 780.796 1761.94 780.796 1761.62 780.796C1761.3 780.796 1760.98 780.796 1760.66 780.796C1760.34 780.796 1760.02 780.796 1759.69 780.796C1759.37 780.796 1759.05 780.796 1758.72 780.796C1758.4 780.796 1758.08 780.796 1757.75 780.796C1757.43 780.796 1757.1 780.796 1756.78 780.796C1756.45 780.796 1756.13 780.796 1755.8 780.796C1755.47 780.796 1755.14 780.796 1754.82 780.796C1754.49 780.796 1754.16 780.796 1753.83 780.796C1753.5 780.796 1753.17 780.796 1752.84 780.796C1752.51 780.796 1752.18 780.796 1751.85 780.796C1751.52 780.796 1751.18 780.796 1750.85 780.796C1750.52 780.796 1750.18 780.796 1749.85 780.796C1749.51 780.796 1749.18 780.796 1748.84 780.796C1748.51 780.796 1748.17 780.796 1747.84 780.796C1747.5 780.796 1747.16 780.796 1746.82 780.796C1746.49 780.796 1746.15 780.796 1745.81 780.796C1745.47 780.796 1745.13 780.796 1744.79 780.796C1744.45 780.796 1744.11 780.796 1743.77 780.796C1743.43 780.796 1743.08 780.796 1742.74 780.796C1742.4 780.796 1742.06 780.796 1741.71 780.796C1741.37 780.796 1741.02 780.796 1740.68 780.796C1740.33 780.796 1739.99 780.796 1739.64 780.796C1739.29 780.796 1738.95 780.796 1738.6 780.796C1738.25 780.796 1737.9 780.796 1737.56 780.796C1737.21 780.796 1736.86 780.796 1736.51 780.796C1736.16 780.796 1735.81 780.796 1735.46 780.796C1735.1 780.796 1734.75 780.796 1734.4 780.796C1734.05 780.796 1733.69 780.796 1733.34 780.796C1732.99 780.796 1732.63 780.796 1732.28 780.796C1731.92 780.796 1731.57 780.796 1731.21 780.796C1730.85 780.796 1730.5 780.796 1730.14 780.796C1729.78 780.796 1729.42 780.796 1729.07 780.796C1728.71 780.796 1728.35 780.796 1727.99 780.796C1727.63 780.796 1727.27 780.796 1726.91 780.796C1726.55 780.796 1726.18 780.796 1725.82 780.796C1725.46 780.796 1725.1 780.796 1724.73 780.796C1724.37 780.796 1724 780.796 1723.64 780.796C1723.28 780.796 1722.91 780.796 1722.54 780.796C1722.18 780.796 1721.81 780.796 1721.44 780.796C1721.08 780.796 1720.71 780.796 1720.34 780.796C1719.97 780.796 1719.6 780.796 1719.23 780.796C1718.86 780.796 1718.49 780.796 1718.12 780.796C1717.75 780.796 1717.38 780.796 1717.01 780.796C1716.63 780.796 1716.26 780.796 1715.89 780.796C1715.51 780.796 1715.14 780.796 1714.77 780.796C1714.39 780.796 1714.02 780.796 1713.64 780.796C1713.26 780.796 1712.89 780.796 1712.51 780.796C1712.13 780.796 1711.76 780.796 1711.38 780.796C1711 780.796 1710.62 780.796 1710.24 780.796C1709.86 780.796 1709.48 780.796 1709.1 780.796C1708.72 780.796 1708.34 780.796 1707.95 780.796C1707.57 780.796 1707.19 780.796 1706.81 780.796C1706.42 780.796 1706.04 780.796 1705.65 780.796C1705.27 780.796 1704.88 780.796 1704.5 780.796C1704.11 780.796 1703.72 780.796 1703.34 780.796C1702.95 780.796 1702.56 780.796 1702.17 780.796C1701.79 780.796 1701.4 780.796 1701.01 780.796C1700.62 780.796 1700.23 780.796 1699.84 780.796C1699.44 780.796 1699.05 780.796 1698.66 780.796C1698.27 780.796 1697.88 780.796 1697.48 780.796C1697.09 780.796 1696.69 780.796 1696.3 780.796C1695.91 780.796 1695.51 780.796 1695.11 780.796C1694.72 780.796 1694.32 780.796 1693.92 780.796C1693.53 780.796 1693.13 780.796 1692.73 780.796C1692.33 780.796 1691.93 780.796 1691.53 780.796C1691.13 780.796 1690.73 780.796 1690.33 780.796C1689.93 780.796 1689.53 780.796 1689.13 780.796C1688.72 780.796 1688.32 780.796 1687.92 780.796C1687.51 780.796 1687.11 780.796 1686.71 780.796C1686.3 780.796 1685.9 780.796 1685.49 780.796C1685.08 780.796 1684.68 780.796 1684.27 780.796C1683.86 780.796 1683.45 780.796 1683.05 780.796C1682.64 780.796 1682.23 780.796 1681.82 780.796C1681.41 780.796 1681 780.796 1680.59 780.796C1680.17 780.796 1679.76 780.796 1679.35 780.796C1678.94 780.796 1678.53 780.796 1678.11 780.796C1677.7 780.796 1677.28 780.796 1676.87 780.796C1676.45 780.796 1676.04 780.796 1675.62 780.796C1675.21 780.796 1674.79 780.796 1674.37 780.796C1673.95 780.796 1673.54 780.796 1673.12 780.796C1672.7 780.796 1672.28 780.796 1671.86 780.796C1671.44 780.796 1671.02 780.796 1670.6 780.796C1670.18 780.796 1669.75 780.796 1669.33 780.796C1668.91 780.796 1668.48 780.796 1668.06 780.796C1667.64 780.796 1667.21 780.796 1666.79 780.796C1666.36 780.796 1665.94 780.796 1665.51 780.796C1665.08 780.796 1664.66 780.796 1664.23 780.796C1663.8 780.796 1663.37 780.796 1662.94 780.796C1662.51 780.796 1662.08 780.796 1661.65 780.796C1661.22 780.796 1660.79 780.796 1660.36 780.796C1659.93 780.796 1659.5 780.796 1659.07 780.796C1658.63 780.796 1658.2 780.796 1657.76 780.796C1657.33 780.796 1656.9 780.796 1656.46 780.796C1656.02 780.796 1655.59 780.796 1655.15 780.796C1654.72 780.796 1654.28 780.796 1653.84 780.796C1653.4 780.796 1652.96 780.796 1652.52 780.796C1652.08 780.796 1651.65 780.796 1651.2 780.796C1650.76 780.796 1650.32 780.796 1649.88 780.796C1649.44 780.796 1649 780.796 1648.55 780.796C1648.11 780.796 1647.67 780.796 1647.22 780.796C1646.78 780.796 1646.33 780.796 1645.89 780.796C1645.44 780.796 1644.99 780.796 1644.55 780.796C1644.1 780.796 1643.65 780.796 1643.2 780.796C1642.76 780.796 1642.31 780.796 1641.86 780.796C1641.41 780.796 1640.96 780.796 1640.51 780.796C1640.06 780.796 1639.6 780.796 1639.15 780.796C1638.7 780.796 1638.25 780.796 1637.79 780.796C1637.34 780.796 1636.89 780.796 1636.43 780.796C1635.98 780.796 1635.52 780.796 1635.06 780.796C1634.61 780.796 1634.15 780.796 1633.69 780.796C1633.24 780.796 1632.78 780.796 1632.32 780.796C1631.86 780.796 1631.4 780.796 1630.94 780.796C1630.48 780.796 1630.02 780.796 1629.56 780.796C1629.1 780.796 1628.64 780.796 1628.17 780.796C1627.71 780.796 1627.25 780.796 1626.78 780.796C1626.32 780.796 1625.86 780.796 1625.39 780.796C1624.93 780.796 1624.46 780.796 1623.99 780.796C1623.53 780.796 1623.06 780.796 1622.59 780.796C1622.12 780.796 1621.66 780.796 1621.19 780.796C1620.72 780.796 1620.25 780.796 1619.78 780.796C1619.31 780.796 1618.83 780.796 1618.36 780.796C1617.89 780.796 1617.42 780.796 1616.95 780.796C1616.47 780.796 1616 780.796 1615.52 780.796C1615.05 780.796 1614.58 780.796 1614.1 780.796C1613.62 780.796 1613.15 780.796 1612.67 780.796C1612.19 780.796 1611.72 780.796 1611.24 780.796C1610.76 780.796 1610.28 780.796 1609.8 780.796C1609.32 780.796 1608.84 780.796 1608.36 780.796C1607.88 780.796 1607.4 780.796 1606.91 780.796C1606.43 780.796 1605.95 780.796 1605.47 780.796C1604.98 780.796 1604.5 780.796 1604.01 780.796C1603.53 780.796 1603.04 780.796 1602.56 780.796C1602.07 780.796 1601.58 780.796 1601.1 780.796C1600.61 780.796 1600.12 780.796 1599.63 780.796C1599.14 780.796 1598.65 780.796 1598.16 780.796C1597.67 780.796 1597.18 780.796 1596.69 780.796C1596.2 780.796 1595.71 780.796 1595.21 780.796C1594.72 780.796 1594.23 780.796 1593.73 780.796C1593.24 780.796 1592.74 780.796 1592.25 780.796C1591.75 780.796 1591.26 780.796 1590.76 780.796C1590.26 780.796 1589.76 780.796 1589.27 780.796C1588.77 780.796 1588.27 780.796 1587.77 780.796C1587.27 780.796 1586.77 780.796 1586.27 780.796C1585.77 780.796 1585.27 780.796 1584.76 780.796C1584.26 780.796 1583.76 780.796 1583.26 780.796C1582.75 780.796 1582.25 780.796 1581.74 780.796C1581.24 780.796 1580.73 780.796 1580.23 780.796C1579.72 780.796 1579.21 780.796 1578.71 780.796C1578.2 780.796 1577.69 780.796 1577.18 780.796C1576.67 780.796 1576.16 780.796 1575.65 780.796C1575.14 780.796 1574.63 780.796 1574.12 780.796C1573.61 780.796 1573.1 780.796 1572.58 780.796C1572.07 780.796 1571.56 780.796 1571.04 780.796C1570.53 780.796 1570.02 780.796 1569.5 780.796C1568.98 780.796 1568.47 780.796 1567.95 780.796C1567.43 780.796 1566.92 780.796 1566.4 780.796C1565.88 780.796 1565.36 780.796 1564.84 780.796C1564.32 780.796 1563.8 780.796 1563.28 780.796C1562.76 780.796 1562.24 780.796 1561.72 780.796C1561.19 780.796 1560.67 780.796 1560.15 780.796C1559.62 780.796 1559.1 780.796 1558.57 780.796C1558.05 780.796 1557.52 780.796 1557 780.796C1556.47 780.796 1555.94 780.796 1555.42 780.796C1554.89 780.796 1554.36 780.796 1553.83 780.796C1553.3 780.796 1552.77 780.796 1552.24 780.796C1551.71 780.796 1551.18 780.796 1550.65 780.796C1550.12 780.796 1549.59 780.796 1549.05 780.796C1548.52 780.796 1547.99 780.796 1547.45 780.796C1546.92 780.796 1546.38 780.796 1545.85 780.796C1545.31 780.796 1544.77 780.796 1544.24 780.796C1543.7 780.796 1543.16 780.796 1542.62 780.796C1542.09 780.796 1541.55 780.796 1541.01 780.796C1540.47 780.796 1539.93 780.796 1539.39 780.796C1538.84 780.796 1538.3 780.796 1537.76 780.796C1537.22 780.796 1536.67 780.796 1536.13 780.796C1535.59 780.796 1535.04 780.796 1534.5 780.796C1533.95 780.796 1533.41 780.796 1532.86 780.796C1532.31 780.796 1531.77 780.796 1531.22 780.796C1530.67 780.796 1530.12 780.796 1529.57 780.796C1529.02 780.796 1528.47 780.796 1527.92 780.796C1527.37 780.796 1526.82 780.796 1526.27 780.796C1525.72 780.796 1525.16 780.796 1524.61 780.796C1524.06 780.796 1523.5 780.796 1522.95 780.796C1522.39 780.796 1521.84 780.796 1521.28 780.796C1520.72 780.796 1520.17 780.796 1519.61 780.796C1519.05 780.796 1518.49 780.796 1517.94 780.796C1517.38 780.796 1516.82 780.796 1516.26 780.796C1515.7 780.796 1515.14 780.796 1514.57 780.796C1514.01 780.796 1513.45 780.796 1512.89 780.796C1512.32 780.796 1511.76 780.796 1511.2 780.796C1510.63 780.796 1510.07 780.796 1509.5 780.796C1508.94 780.796 1508.37 780.796 1507.8 780.796C1507.23 780.796 1506.67 780.796 1506.1 780.796C1505.53 780.796 1504.96 780.796 1504.39 780.796C1503.82 780.796 1503.25 780.796 1502.68 780.796C1502.11 780.796 1501.54 780.796 1500.96 780.796C1500.39 780.796 1499.82 780.796 1499.24 780.796C1498.67 780.796 1498.09 780.796 1497.52 780.796C1496.94 780.796 1496.37 780.796 1495.79 780.796C1495.21 780.796 1494.64 780.796 1494.06 780.796C1493.48 780.796 1492.9 780.796 1492.32 780.796C1491.74 780.796 1491.16 780.796 1490.58 780.796C1490 780.796 1489.42 780.796 1488.84 780.796C1488.25 780.796 1487.67 780.796 1487.09 780.796C1486.5 780.796 1485.92 780.796 1485.33 780.796C1484.75 780.796 1484.16 780.796 1483.58 780.796C1482.99 780.796 1482.4 780.796 1481.82 780.796C1481.23 780.796 1480.64 780.796 1480.05 780.796C1479.46 780.796 1478.87 780.796 1478.28 780.796C1477.69 780.796 1477.1 780.796 1476.51 780.796C1475.91 780.796 1475.32 780.796 1474.73 780.796C1474.14 780.796 1473.54 780.796 1472.95 780.796C1472.35 780.796 1471.76 780.796 1471.16 780.796V864.796Z" fill="white"/>
</svg>
